<svg width="78" height="79" viewBox="0 0 78 79" fill="none" xmlns="http://www.w3.org/2000/svg">
<path fill-rule="evenodd" clip-rule="evenodd" d="M45.2898 4.89751V8.79892L44.0318 9.03874L42.7737 9.27856V6.39539V3.51222H41.5156H40.2576V6.64433V9.77644L39.5106 9.93464C39.0997 10.0216 37.4015 10.3618 35.7364 10.6904L32.7092 11.2882V14.9485V18.609H21.3866H10.064V19.8671V21.1251H11.3221H12.5802V28.7202V36.3155L11.5868 36.2523C9.43578 36.1153 7.4276 36.9692 5.5655 38.8127C3.47853 40.8788 2.60323 43.0872 2.60323 46.2864C2.60323 49.2493 3.45699 51.5615 5.26766 53.503C6.42916 54.7482 7.51267 55.4585 8.95363 55.9194L10.0571 56.2723L10.0606 57.0347L10.064 57.7971L9.55294 57.456C8.31437 56.6291 7.67905 56.4304 6.28983 56.4346C5.17723 56.4379 4.80107 56.5091 4.04608 56.8592C1.27613 58.1434 -0.385456 61.6743 0.122645 65.1967C0.492516 67.7609 2.16024 70.1582 4.14719 70.9816L5.03177 71.3483V73.9141V76.48H2.51564H-0.000488281V77.738V78.9961H38.9995H77.9995V77.738V76.48H76.7414H75.4834V57.609V38.738H74.2253H72.9673V36.2219V33.7058H71.7092H70.4511V29.9316V26.1574H69.1931H67.935V23.6413V21.1251H66.6769H65.4189V23.6413V26.1574H64.1608H62.9027V29.9316V33.7058H61.6447H60.3866V19.732V5.75818L56.9662 6.441C55.0851 6.81653 53.3867 7.16171 53.1921 7.2081C52.8401 7.29192 52.8382 7.28249 52.8382 5.40231V3.51222H51.5802H50.3221V5.63222C50.3221 7.70205 50.3138 7.7541 49.9683 7.83257C48.8049 8.09677 48.1757 8.22273 48.0025 8.22619C47.8509 8.22902 47.806 7.40373 47.806 4.61303V0.996094H46.5479H45.2898V4.89751ZM57.8705 21.2824V33.7058H54.0963H50.3221V36.2219V38.738H49.064H47.806V53.8145V68.891L46.9868 68.9997C46.5363 69.0594 45.8393 69.2497 45.4378 69.4224L44.7081 69.7363L43.8234 68.8861C42.8748 67.9747 41.6487 67.2565 40.2576 66.7976C39.3318 66.4922 37.0976 66.3981 35.8937 66.6139L35.2253 66.7337L35.2278 40.0373L35.2304 13.3409L46.3538 11.1142C52.4718 9.88951 57.5659 8.88101 57.6739 8.87331C57.8296 8.86198 57.8705 11.4409 57.8705 21.2824ZM37.7414 21.1251V26.1574H41.5156H45.2898V21.1251V16.0929H41.5156H37.7414V21.1251ZM47.806 21.1251V26.1574H51.5802H55.3544V21.1251V16.0929H51.5802H47.806V21.1251ZM42.7737 21.1251V23.6413H41.5156H40.2576V21.1251V18.609H41.5156H42.7737V21.1251ZM52.8382 21.1251V23.6413H51.5802H50.3221V21.1251V18.609H51.5802H52.8382V21.1251ZM32.7092 44.4941V67.8632L31.6477 68.9144C31.0638 69.4927 30.4094 70.2991 30.1934 70.7067C29.6769 71.6808 29.3003 71.6853 28.2788 70.7298C27.8567 70.3349 27.0355 69.7866 26.4539 69.5111C25.4964 69.0574 25.2558 69.0102 23.9027 69.0102C22.5517 69.0102 22.3083 69.0579 21.3583 69.5079C19.8988 70.1994 18.9856 71.0925 18.2817 72.5164C17.7425 73.6076 17.6975 73.8045 17.6943 75.0885L17.691 76.4792L15.1356 76.4795L12.5802 76.48V74.1947V71.9094L16.3544 67.5163L20.1285 63.1231L20.132 61.5848L20.1355 60.0465L21.2389 59.6936C22.6799 59.2327 23.7634 58.5224 24.9249 57.2772C26.7837 55.2843 27.6027 53.0109 27.5815 49.9034C27.57 48.2279 27.5069 47.7517 27.1547 46.6796C26.5771 44.9213 25.7439 43.6015 24.4137 42.3378L23.2728 41.2542H24.2168H25.1608V39.9961V38.738H23.9027H22.6447V39.8318V40.9255L21.5832 40.5251C20.9865 40.3001 20.0189 40.0864 19.3739 40.0371L18.226 39.9495L17.2076 38.8947C16.6475 38.3145 15.9433 37.7074 15.6428 37.5455L15.0963 37.2512V29.1882V21.1251H23.9027H32.7092V44.4941ZM17.6124 24.8993V26.1574H18.8705H20.1285V24.8993V23.6413H18.8705H17.6124V24.8993ZM22.6447 24.8993V26.1574H23.9027H25.1608V24.8993V23.6413H23.9027H22.6447V24.8993ZM27.6769 24.8993V26.1574H28.935H30.1931V24.8993V23.6413H28.935H27.6769V24.8993ZM17.6124 29.9316V31.1896H18.8705H20.1285V29.9316V28.6735H18.8705H17.6124V29.9316ZM22.6447 29.9316V31.1896H23.9027H25.1608V29.9316V28.6735H23.9027H22.6447V29.9316ZM27.6769 29.9316V31.1896H28.935H30.1931V29.9316V28.6735H28.935H27.6769V29.9316ZM37.7414 33.7058V38.738H41.5156H45.2898V33.7058V28.6735H41.5156H37.7414V33.7058ZM67.935 31.1896V33.7058H66.6769H65.4189V31.1896V28.6735H66.6769H67.935V31.1896ZM42.7737 33.7058V36.2219H41.5156H40.2576V33.7058V31.1896H41.5156H42.7737V33.7058ZM17.6124 34.9638V36.2219H18.8705H20.1285V34.9638V33.7058H18.8705H17.6124V34.9638ZM22.6447 34.9638V36.2219H23.9027H25.1608V34.9638V33.7058H23.9027H22.6447V34.9638ZM27.6769 34.9638V36.2219H28.935H30.1931V34.9638V33.7058H28.935H27.6769V34.9638ZM70.4511 37.48V38.738H61.6447H52.8382V37.48V36.2219H61.6447H70.4511V37.48ZM13.6116 39.2724C15.5437 40.157 17.1295 42.4949 17.4893 44.989C17.9615 48.263 16.5817 51.552 14.131 52.9944C13.6673 53.2673 13.1285 53.5374 12.934 53.5947L12.5802 53.6988V49.3635V45.0284H11.3221H10.064V49.3635V53.6988L9.7102 53.5893C7.45873 52.8931 5.55969 50.3894 5.1549 47.5838C4.58217 43.614 6.76397 39.7212 10.0222 38.8992C10.9837 38.6567 12.6437 38.8294 13.6116 39.2724ZM27.6769 39.9961V41.2542H28.935H30.1931V39.9961V38.738H28.935H27.6769V39.9961ZM37.7414 46.2864V51.3187H41.5156H45.2898V46.2864V41.2542H41.5156H37.7414V46.2864ZM72.9673 57.7059V74.1577L72.3513 73.6012C72.0125 73.2952 71.4469 72.88 71.0945 72.6787L70.4535 72.3126L70.4524 58.0415L70.4511 43.7703H61.6447H52.8382V55.9578C52.8382 62.6609 52.7785 68.1453 52.7055 68.1453C52.6325 68.1453 52.201 68.5016 51.7467 68.9374C51.1455 69.5137 50.8392 69.7036 50.6214 69.6344C50.3301 69.5419 50.3221 69.161 50.3221 55.3969V41.2542H61.6447H72.9673V57.7059ZM21.428 43.1623C23.1987 44.0656 24.6906 46.3957 25.0421 48.8062C25.5462 52.2658 23.8611 55.8251 21.1142 57.1018C20.3575 57.4536 19.9856 57.5241 18.8705 57.5269C17.7297 57.5299 17.407 57.4678 16.6689 57.1036C16.1932 56.8688 15.5333 56.4524 15.2026 56.1783L14.6012 55.6798L15.5171 55.0911C18.1874 53.3748 19.8555 50.4159 20.0752 47.0063C20.16 45.6907 19.9213 43.6641 19.58 42.8016C19.4885 42.5704 19.5517 42.5574 20.1311 42.6876C20.491 42.7684 21.0746 42.9821 21.428 43.1623ZM42.7737 46.2864V48.8025H41.5156H40.2576V46.2864V43.7703H41.5156H42.7737V46.2864ZM60.3866 56.5101V66.7337L59.7183 66.6139C58.832 66.4551 56.8566 66.4614 56.0227 66.6259L55.3544 66.7576V56.522V46.2864H57.8705H60.3866V56.5101ZM67.935 58.9625C67.935 70.4568 67.9119 71.6297 67.6862 71.5432C67.5494 71.4906 67.0716 71.4477 66.6244 71.4477C65.8219 71.4477 65.8067 71.4387 65.4376 70.7429C65.0661 70.0426 63.3188 68.1453 63.0455 68.1453C62.9614 68.1453 62.9027 63.662 62.9027 57.2159V46.2864H65.4189H67.935V58.9625ZM37.7414 58.8671V63.8993H41.5156H45.2898V58.8671V53.8348H41.5156H37.7414V58.8671ZM42.7737 58.8671V61.3832H41.5156H40.2576V58.8671V56.3509H41.5156H42.7737V58.8671ZM15.4377 59.2626C16.0645 59.5629 16.8102 59.8524 17.0949 59.9058L17.6124 60.0029V61.094V62.1852L15.2281 64.9687C13.9169 66.4996 12.7846 67.8193 12.7119 67.9015C12.6394 67.9836 12.5802 65.5851 12.5802 62.5713V57.0916L13.4391 57.904C13.9225 58.3612 14.7966 58.9553 15.4377 59.2626ZM7.4754 59.1624C8.32067 59.5464 9.35165 60.7454 9.70013 61.7494C10.0801 62.8441 10.0801 64.9545 9.70013 66.0492C9.54492 66.4963 9.12378 67.1964 8.76429 67.6049C7.23228 69.3453 5.34739 69.3453 3.81538 67.6049C2.93772 66.6078 2.59726 65.5724 2.59726 63.8993C2.59726 62.2262 2.93772 61.1909 3.81538 60.1937C4.9209 58.9378 6.19218 58.5796 7.4754 59.1624ZM40.325 69.5323C41.6528 70.1536 42.565 71.0171 43.3298 72.3766C43.6726 72.9862 43.9898 73.4864 44.0344 73.4884C44.0793 73.4905 44.4685 73.1842 44.8994 72.8078C46.0819 71.7753 46.627 71.5369 47.806 71.5369C48.9849 71.5369 49.53 71.7753 50.7126 72.8078C51.1435 73.1842 51.5327 73.4905 51.5775 73.4884C51.6221 73.4864 51.9393 72.9862 52.2822 72.3766C53.051 71.0101 53.9562 70.1568 55.326 69.5079C56.276 69.0579 56.5195 69.0102 57.8705 69.0102C59.2215 69.0102 59.4649 69.0579 60.4149 69.5079C62.1831 70.3456 63.3731 71.7377 64.0018 73.7039L64.1952 74.3089L64.9251 74.1757C65.3264 74.1024 66.2232 74.0464 66.9182 74.0511C67.9922 74.0583 68.3338 74.1319 69.1984 74.5425C70.1961 75.0165 71.5519 76.0491 71.5519 76.335C71.5519 76.4229 61.4624 76.48 45.9285 76.48H20.3051L20.1936 75.7369C19.8666 73.5561 21.6898 71.4477 23.9027 71.4477C25.1389 71.4477 26.2308 72.0767 27.1191 73.301C27.6382 74.0164 27.6504 74.0223 28.4856 73.9846C28.9844 73.9619 29.7295 74.0716 30.3118 74.2533C30.8528 74.4222 31.3211 74.5146 31.3527 74.4587C31.3841 74.4027 31.4985 74.0739 31.6067 73.728C32.1646 71.9451 33.4716 70.3013 34.8654 69.6296C36.6295 68.7794 38.6395 68.7437 40.325 69.5323ZM10.064 73.2562V76.48H8.80596H7.5479V73.8975V71.3148L8.05899 71.1451C8.34017 71.0517 8.88852 70.7635 9.27774 70.5046C9.66695 70.2456 10.003 70.0335 10.0247 70.033C10.0464 70.0327 10.064 71.4831 10.064 73.2562Z" fill="#6CC0AE"/>
</svg>
