<svg width="43" height="42" viewBox="0 0 43 42" fill="none" xmlns="http://www.w3.org/2000/svg">
<path fill-rule="evenodd" clip-rule="evenodd" d="M4.59918 0.132855C2.71629 0.537237 1.13654 2.13177 0.739714 4.0284C0.56072 4.88388 0.56072 36.7293 0.739714 37.5847C1.04627 39.0498 2.06645 40.3776 3.38514 41.0276C4.59772 41.6254 4.21072 41.6036 13.6475 41.6052L22.0865 41.6066L22.4022 41.4292C22.6042 41.3156 22.7769 41.1299 22.8817 40.9135C23.0428 40.5807 23.0451 40.4512 23.0239 32.8094C23.0024 25.0582 23.002 25.043 22.8313 24.8141C22.7373 24.6879 22.5362 24.5116 22.3844 24.4222C22.129 24.2717 21.9359 24.2578 19.7727 24.2338L17.4367 24.2079V22.4666V20.7253H19.8216C23.2734 20.7253 23.0421 20.9965 23.0443 16.9472C23.046 13.7374 23.0903 13.3609 23.5836 12.3583C23.9951 11.5224 24.8901 10.6274 25.726 10.2159C26.6966 9.73826 27.1506 9.67829 29.8071 9.67667L32.143 9.67529V11.4222V13.169H29.906C27.4736 13.169 27.3355 13.1903 26.9279 13.6262C26.8078 13.7546 26.6707 13.9626 26.6232 14.0884C26.5683 14.2335 26.5368 15.3175 26.5369 17.054C26.537 20.1079 26.5476 20.1737 27.0972 20.5409C27.3686 20.7221 27.414 20.7253 29.7582 20.7253H32.143V22.4666V24.2079L29.8071 24.2338C27.6438 24.2578 27.4507 24.2717 27.1953 24.4222C27.0435 24.5116 26.8424 24.6879 26.7484 24.8141C26.5777 25.043 26.5774 25.0576 26.5558 32.8447L26.5343 40.6458L26.7076 40.9542C26.8029 41.1238 27.0186 41.3399 27.1871 41.4345C27.4899 41.6048 27.5485 41.6066 32.5603 41.6052C38.2622 41.6036 38.2866 41.6016 39.4508 41.0276C40.7695 40.3776 41.7897 39.0498 42.0962 37.5847C42.2752 36.7293 42.2752 4.88388 42.0962 4.0284C41.6953 2.11227 40.1123 0.529275 38.1961 0.128305C37.3646 -0.0456517 5.41038 -0.0413454 4.59918 0.132855ZM37.5873 2.52535C38.714 2.73904 39.485 3.50807 39.6979 4.63046C39.8119 5.23179 39.8119 36.3813 39.6979 36.9827C39.485 38.1051 38.714 38.8741 37.5873 39.0878C37.3366 39.1353 35.4579 39.1691 33.0663 39.1691H28.9742V32.958V26.7469L31.3508 26.7221C34.0742 26.6936 34.1379 26.679 34.4816 26.0047C34.6666 25.6414 34.6669 25.6364 34.6441 22.378L34.6211 19.1152L34.3697 18.803C34.2314 18.6314 33.9937 18.4473 33.8415 18.3939C33.6537 18.3281 32.8281 18.2955 31.2696 18.2924L28.9742 18.2878V16.9472V15.6066H31.3385C33.9908 15.6066 34.1032 15.5863 34.437 15.0495C34.6206 14.7543 34.6211 14.7429 34.6211 11.4078C34.6211 8.14047 34.6172 8.05686 34.4512 7.83278C34.3576 7.70659 34.1573 7.51907 34.0057 7.41596L33.7303 7.2286L30.1945 7.25622L26.6586 7.28393L25.9439 7.50534C23.3316 8.31467 21.5849 10.0936 20.8223 12.7222C20.6762 13.2254 20.6535 13.579 20.6251 15.7894L20.593 18.2878H18.2811C15.6932 18.2878 15.5855 18.3064 15.1927 18.8212L14.9586 19.128L14.9357 22.3845C14.9033 26.9919 14.6702 26.6849 18.2289 26.7221L20.6055 26.7469V32.958V39.1691H13.1415C8.42192 39.1691 5.51739 39.1387 5.24187 39.0865C4.11948 38.8736 3.35045 38.1025 3.13676 36.9758C3.0239 36.3809 3.0252 5.2257 3.13806 4.63046C3.34476 3.54057 4.12565 2.73904 5.18378 2.53071C5.69687 2.42964 37.0555 2.42452 37.5873 2.52535Z" fill="#6CC0AE"/>
</svg>
