<svg width="45" height="45" viewBox="0 0 45 45" fill="none" xmlns="http://www.w3.org/2000/svg">
<g clip-path="url(#clip0_110_7173)">
<path fill-rule="evenodd" clip-rule="evenodd" d="M14.2575 9.58122C13.992 9.31569 13.5568 9.31569 13.2913 9.58122C13.0257 9.84675 13.0257 10.2819 13.2913 10.5475L17.0898 14.346L17.3258 14.582C18.2552 15.6294 19.5238 14.8107 19.3985 14.7222L15.1426 10.4663L14.2575 9.58122ZM10.3262 14.8771L14.582 19.1329C14.6705 19.2583 15.4893 17.9897 14.4419 17.0603L14.0952 16.7137L10.4589 13.0774C10.1934 12.8118 9.75824 12.8118 9.49271 13.0774C9.22718 13.3429 9.22718 13.7781 9.49271 14.0436L10.3262 14.8771ZM18.5207 18.5429C18.2847 18.7789 18.2847 19.1698 18.5207 19.4058C18.7568 19.6419 19.1477 19.6419 19.3837 19.4058C19.6197 19.1698 19.6197 18.7789 19.3837 18.5429C19.1403 18.3068 18.7568 18.3068 18.5207 18.5429ZM35.3893 30.713C35.6548 30.9785 35.6548 31.4137 35.3893 31.6792C35.1238 31.9448 34.6886 31.9448 34.423 31.6792L30.6171 27.8807L30.3811 27.6446C29.3337 26.7153 30.1524 25.4466 30.2409 25.572L34.4968 29.8279L35.3893 30.713ZM30.1008 34.6443L25.8449 30.3885C25.7196 30.3 26.9882 29.4812 27.9176 30.5286L28.2642 30.8753L31.9005 34.5116C32.166 34.7771 32.166 35.2123 31.9005 35.4778C31.635 35.7433 31.1998 35.7433 30.9343 35.4778L30.1008 34.6443ZM26.4276 26.4498C26.1916 26.6858 25.8007 26.6858 25.5647 26.4498C25.3286 26.2137 25.3286 25.8228 25.5647 25.5868C25.8007 25.3508 26.1916 25.3508 26.4276 25.5868C26.671 25.8302 26.671 26.2137 26.4276 26.4498ZM19.5755 21.7735L19.1993 21.744H19.0739C18.1888 21.744 17.3037 22.0095 16.5588 22.5479C17.2742 23.0274 18.1077 23.2634 18.9412 23.2634C19.8263 23.2634 20.7114 22.9979 21.4563 22.4594C20.8884 22.0833 20.2393 21.8546 19.5755 21.7735ZM22.5332 23.4773C21.98 24.2296 21.7071 25.1295 21.7071 26.022C21.7071 26.9292 21.9874 27.829 22.5479 28.5888C23.1011 27.8364 23.374 26.9366 23.374 26.0441C23.374 25.1442 23.0938 24.237 22.5332 23.4773ZM14.3903 35.4335C14.1247 35.6991 13.6896 35.6991 13.424 35.4335C13.1585 35.168 13.1585 34.7328 13.424 34.4673L17.2226 30.6687L17.4586 30.4327C18.388 29.3853 19.6566 30.2041 19.5312 30.2926L15.2754 34.5484L14.3903 35.4335ZM10.4589 30.1451L14.7148 25.8892C14.8033 25.7638 15.622 27.0325 14.5747 27.9618L14.228 28.3085L10.5917 31.9448C10.3262 32.2103 9.891 32.2103 9.62547 31.9448C9.35994 31.6792 9.35994 31.2441 9.62547 30.9785L10.4589 30.1451ZM18.6461 26.4719C18.4101 26.2359 18.4101 25.8449 18.6461 25.6089C18.8822 25.3729 19.2731 25.3729 19.5091 25.6089C19.7451 25.8449 19.7451 26.2359 19.5091 26.4719C19.2731 26.7153 18.8822 26.7153 18.6461 26.4719ZM22.5184 21.3752C23.0052 20.6524 23.2413 19.8115 23.2413 18.978C23.2413 18.1151 22.9905 17.2595 22.4742 16.5219C21.9874 17.2447 21.7514 18.0856 21.7514 18.9264C21.7587 19.7746 22.0095 20.6376 22.5184 21.3752ZM28.456 22.4889C27.7184 21.98 26.8628 21.7218 25.9998 21.7218C25.159 21.7218 24.3181 21.9653 23.5953 22.4521C24.3329 22.961 25.1885 23.2118 26.0515 23.2118C26.8923 23.2191 27.7332 22.9757 28.456 22.4889ZM30.7425 9.52958C31.008 9.26406 31.4432 9.26406 31.7087 9.52958C31.9743 9.79512 31.9743 10.2303 31.7087 10.4958L27.9102 14.2944L27.6742 14.5304C26.7448 15.5778 25.4762 14.7591 25.6015 14.6705L29.8574 10.4147L30.7425 9.52958ZM34.6738 14.8181L30.418 19.0739C30.3295 19.1993 29.5107 17.9307 30.5581 17.0013L30.9048 16.6546L34.5411 13.0184C34.8066 12.7528 35.2418 12.7528 35.5073 13.0184C35.7728 13.2839 35.7728 13.7191 35.5073 13.9846L34.6738 14.8181ZM26.4866 18.4912C26.7227 18.7273 26.7227 19.1182 26.4866 19.3542C26.2506 19.5902 25.8597 19.5902 25.6237 19.3542C25.3876 19.1182 25.3876 18.7273 25.6237 18.4912C25.8597 18.2478 26.2432 18.2478 26.4866 18.4912ZM17.2078 11.1449C16.9423 10.8794 16.9423 10.4442 17.2078 10.1787C17.4734 9.91313 17.9085 9.91313 18.1741 10.1787L22.4742 14.4788L25.3434 11.6022C25.4319 11.5137 26.2801 12.7159 25.5057 13.3724L23.4109 15.4671C24.2075 16.485 24.6132 17.7241 24.6132 18.9633C24.6132 19.5091 24.532 20.0549 24.3772 20.586C24.9082 20.4311 25.454 20.3499 25.9998 20.3499C27.239 20.3499 28.4781 20.7482 29.496 21.5522L33.8772 17.171C34.1428 16.9054 34.5779 16.9054 34.8435 17.171C35.109 17.4365 35.109 17.8717 34.8435 18.1372L30.4917 22.4889L33.3093 25.3065C33.3978 25.395 32.1955 26.2432 31.5391 25.4688L29.4886 23.4183C28.4781 24.1854 27.2685 24.5689 26.0515 24.5689C25.5204 24.5689 24.9967 24.4952 24.4878 24.3476C24.6574 24.8935 24.7386 25.4614 24.7386 26.0293C24.7386 27.2906 24.3255 28.5519 23.4921 29.5845L27.7405 33.833C28.0061 34.0985 28.0061 34.5337 27.7405 34.7992C27.475 35.0647 27.0398 35.0647 26.7743 34.7992L22.5479 30.5729L19.782 33.3388C19.6935 33.4273 18.8453 32.225 19.6197 31.5686L21.6038 29.5845C20.7556 28.5445 20.3352 27.2759 20.3352 26.0072C20.3352 25.4614 20.4163 24.9156 20.5712 24.3845C20.0402 24.5394 19.4943 24.6206 18.9485 24.6206C17.7463 24.6206 16.544 24.2444 15.5335 23.4847L11.2482 27.77C10.9826 28.0356 10.5475 28.0356 10.2819 27.77C10.0164 27.5045 10.0164 27.0693 10.2819 26.8038L14.523 22.5627L11.6317 19.6714C11.5432 19.5829 12.7455 18.7346 13.4019 19.5091L15.4008 21.5079L15.6073 21.3899C16.3817 20.9031 17.3406 20.2836 18.86 20.3794C18.9338 20.3794 19.0002 20.3794 19.0739 20.3794C19.5976 20.3794 20.1287 20.4532 20.6376 20.6007C20.468 20.0549 20.3868 19.487 20.3868 18.919C20.3868 17.7094 20.7704 16.4924 21.5375 15.4819L17.2078 11.1449ZM10.2524 34.7697L10.3557 34.873C10.6212 35.0869 11.0195 35.0721 11.2629 34.8213L15.7474 30.3442L15.7843 30.3073L15.8138 30.2704L15.8359 30.2483C16.1088 29.9754 16.3154 29.7763 16.4924 29.5697C17.407 28.8248 18.4986 28.8617 19.7673 28.8395L19.3026 27.5045C19.3026 27.5045 18.447 27.3717 17.5102 27.5856C17.7241 26.6489 17.5914 25.7933 17.5914 25.7933L16.2564 25.3286C16.2342 26.5899 16.2711 27.6815 15.5261 28.5961C15.2901 28.7953 15.0688 29.0313 14.7517 29.3485L14.4124 29.732L10.2967 33.8477C10.0459 34.1059 10.0311 34.4968 10.2524 34.7697ZM34.5706 34.9394C34.6886 34.8287 34.7992 34.7181 34.9099 34.6001C35.0279 34.3493 34.9762 34.0395 34.7697 33.833L30.654 29.7173L30.3147 29.3337C29.9975 29.0166 29.7763 28.7879 29.5402 28.5814C28.7953 27.6668 28.8322 26.5752 28.81 25.3139L27.475 25.7786C27.475 25.7786 27.3422 26.6342 27.5635 27.5709C26.6268 27.357 25.7712 27.4824 25.7712 27.4824L25.3065 28.8174C26.5678 28.8395 27.6594 28.8027 28.574 29.5476C28.7584 29.7615 28.9649 29.9607 29.2305 30.2262L29.2526 30.2483L29.2895 30.2778L29.3263 30.3147L33.8035 34.7918C34.0174 35.0057 34.3198 35.0574 34.5706 34.9394ZM35.0205 10.5106C34.8361 10.3188 34.6517 10.1344 34.4599 9.95001C34.246 9.91313 34.0248 9.97951 33.8625 10.1418L29.3853 14.6263L29.3485 14.6632L29.3116 14.7L29.2895 14.7222C29.0166 14.9951 28.81 15.1942 28.633 15.4008C27.7184 16.1457 26.6268 16.1088 25.3655 16.131L25.8302 17.466C25.8302 17.466 26.6858 17.5988 27.6225 17.3849C27.4086 18.3216 27.534 19.1772 27.534 19.1772L28.869 19.6419C28.8912 18.3732 28.8543 17.289 29.5992 16.3744C29.8353 16.1752 30.0566 15.9392 30.3737 15.622L30.713 15.2385L34.8287 11.1228C34.991 10.9457 35.0574 10.7245 35.0205 10.5106ZM10.4663 10.0238C10.304 10.1787 10.1492 10.3336 9.99426 10.4958C9.92788 10.7245 9.98689 10.9826 10.1713 11.167L14.287 15.2827L14.6263 15.6663C14.9435 15.9834 15.1647 16.2121 15.4008 16.4186C16.1457 17.3332 16.1088 18.4248 16.131 19.6861L17.466 19.2214C17.466 19.2214 17.5988 18.3658 17.3775 17.4291C18.3142 17.643 19.1698 17.5102 19.1698 17.5102L19.6345 16.1752C18.3658 16.1531 17.2816 16.19 16.367 15.445C16.1826 15.2385 15.9834 15.032 15.7105 14.7664L15.6884 14.7443L15.6589 14.7148L15.622 14.6779L11.1449 10.2008C10.9531 10.0164 10.695 9.95738 10.4663 10.0238ZM6.64563 34.364V32.0406C6.40961 31.6497 6.18833 31.2441 5.98181 30.831C4.88281 28.6551 4.21898 26.2654 4.04196 23.7871C4.01983 23.4625 4.26324 23.1896 4.5804 23.1675C4.89756 23.1454 5.17784 23.3888 5.19997 23.7059C5.34011 25.7343 5.83429 27.6963 6.63826 29.5107V11.8087C4.68366 14.7 3.50352 18.1519 3.37813 21.8767C3.35601 21.8767 3.33388 21.8767 3.31175 21.8767C2.96509 21.8767 2.68481 22.157 2.68481 22.5037C2.68481 25.159 3.22324 27.7627 4.22636 30.1672C4.86805 31.6497 5.67202 33.0585 6.64563 34.364ZM34.364 38.3544H32.0406C31.6497 38.5904 31.2441 38.8117 30.831 39.0182C28.6551 40.1172 26.2654 40.781 23.7871 40.958C23.4625 40.9802 23.1896 40.7368 23.1675 40.4196C23.1454 40.0951 23.3888 39.8222 23.706 39.8C25.7343 39.6599 27.6963 39.1657 29.5181 38.3617H11.8161C14.7074 40.3163 18.1593 41.4965 21.8841 41.6219C21.8841 41.644 21.8841 41.6661 21.8841 41.6882C21.8841 42.0349 22.1644 42.3152 22.5111 42.3152C25.1664 42.3152 27.77 41.7768 30.1746 40.7736C31.6497 40.1319 33.0585 39.328 34.364 38.3544ZM38.3544 10.636V12.9594C38.5904 13.3503 38.8117 13.7559 39.0182 14.169C40.1172 16.3449 40.781 18.7346 40.958 21.2129C40.9802 21.5375 40.7368 21.8104 40.4196 21.8325C40.0951 21.8546 39.8222 21.6112 39.8 21.2941C39.6599 19.2657 39.1657 17.3037 38.3617 15.4819V33.1839C40.3163 30.2926 41.4965 26.8407 41.6145 23.1159C41.6366 23.1159 41.6587 23.1233 41.6809 23.1233C42.0275 23.1233 42.3078 22.843 42.3078 22.4963C42.3078 19.841 41.7768 17.2373 40.7663 14.8328C40.132 13.3503 39.328 11.9415 38.3544 10.636ZM10.636 6.64563H12.9594C13.3503 6.40961 13.7559 6.18833 14.169 5.98181C16.3449 4.88281 18.7346 4.21898 21.2129 4.04196C21.5301 4.01983 21.8104 4.26324 21.8325 4.5804C21.8546 4.90493 21.6112 5.17784 21.2941 5.19997C19.2657 5.34011 17.3037 5.83429 15.4819 6.63826H33.1913C30.3 4.68366 26.8407 3.50352 23.1233 3.38551C23.1233 3.36338 23.1233 3.34126 23.1233 3.31913C23.1233 2.97246 22.843 2.69218 22.5037 2.69218C19.8484 2.69218 17.2447 3.23062 14.8402 4.23373C13.3503 4.86805 11.9415 5.67202 10.636 6.64563ZM22.5037 0C28.7141 0 34.3419 2.51516 38.4134 6.594C42.4848 10.6655 45.0074 16.2932 45.0074 22.5037C45.0074 28.7141 42.4922 34.3419 38.4134 38.4134C34.3419 42.4848 28.7141 45 22.5037 45C16.2932 45 10.6655 42.4848 6.594 38.4134C2.51516 34.3419 0 28.7141 0 22.5037C0 16.2932 2.51516 10.6655 6.58663 6.594C10.6655 2.51516 16.2859 0 22.5037 0Z" fill="#6EC1AF"/>
</g>
<defs>
<clipPath id="clip0_110_7173">
<rect width="45" height="45" fill="white"/>
</clipPath>
</defs>
</svg>
