<svg width="42" height="42" viewBox="0 0 42 42" fill="none" xmlns="http://www.w3.org/2000/svg">
<path fill-rule="evenodd" clip-rule="evenodd" d="M9.87452 0.118117C5.24098 0.768606 1.5116 4.10189 0.372634 8.61071C0.265383 9.03524 0.138389 9.71165 0.0903705 10.1138C-0.0301235 11.1232 -0.0301235 30.4733 0.0903705 31.4826C0.655465 36.2175 4.02418 40.0686 8.61514 41.2283C9.03967 41.3355 9.71608 41.4625 10.1183 41.5105C11.1276 41.631 30.4777 41.631 31.4871 41.5105C35.7547 41.0012 39.3229 38.2164 40.8734 34.1849C41.1244 33.5323 41.4179 32.2962 41.515 31.4826C41.6355 30.4733 41.6355 11.1232 41.515 10.1138C41.0056 5.84617 38.2208 2.27799 34.1894 0.727494C33.5368 0.476512 32.3006 0.183036 31.4871 0.0859422C30.375 -0.0468206 10.842 -0.017733 9.87452 0.118117ZM31.1386 2.52605C35.3338 2.97959 38.6213 6.26713 39.0749 10.4623C39.2003 11.623 39.2003 29.9735 39.0749 31.1342C38.6213 35.3293 35.3338 38.6169 31.1386 39.0704C29.9779 39.1959 11.6274 39.1959 10.4668 39.0704C6.27156 38.6169 2.98401 35.3293 2.53048 31.1342C2.40503 29.9735 2.40503 11.623 2.53048 10.4623C2.74546 8.47405 3.54667 6.73676 4.91761 5.28644C6.36337 3.75691 8.35197 2.74957 10.362 2.52848C11.3606 2.41863 30.1247 2.41644 31.1386 2.52605ZM31.7937 5.43562C30.5847 5.84763 29.6977 6.91575 29.4892 8.21047C29.2812 9.5017 29.876 10.827 30.9974 11.5713C31.721 12.0517 32.5713 12.2436 33.3904 12.1117C34.7211 11.8974 35.8178 10.9558 36.1985 9.70076C36.3613 9.16435 36.3553 8.17098 36.1862 7.67048C35.8293 6.6135 34.9846 5.76858 33.9304 5.41408C33.3971 5.23477 32.3521 5.24525 31.7937 5.43562ZM33.3932 7.84988C34.2536 8.3581 33.8949 9.68914 32.8976 9.68914C32.3445 9.68914 31.9118 9.2564 31.9118 8.70333C31.9118 7.9482 32.746 7.46752 33.3932 7.84988ZM18.9339 9.54882C17.6355 9.77413 16.215 10.2824 15.1558 10.9007C11.5597 12.9995 9.42496 16.6892 9.42935 20.7982C9.4326 23.9004 10.5757 26.6666 12.755 28.8459C14.935 31.0259 17.7055 32.1704 20.8027 32.1704C23.8998 32.1704 26.6703 31.0259 28.8503 28.8459C31.0304 26.6659 32.1748 23.8954 32.1748 20.7982C32.1748 17.7011 31.0304 14.9306 28.8503 12.7506C27.1353 11.0355 25.0065 9.94419 22.5902 9.54119C21.7418 9.39973 19.7692 9.40379 18.9339 9.54882ZM22.3111 11.9858C26.596 12.733 29.7402 16.4626 29.7402 20.7982C29.7402 25.7173 25.7217 29.7358 20.8027 29.7358C15.8836 29.7358 11.8651 25.7173 11.8651 20.7982C11.8651 15.2854 16.8958 11.0415 22.3111 11.9858Z" fill="#6CC0AE"/>
</svg>
