<svg width="71" height="72" viewBox="0 0 71 72" fill="none" xmlns="http://www.w3.org/2000/svg">
<path fill-rule="evenodd" clip-rule="evenodd" d="M47.2471 0.166317C44.3088 0.724937 41.6895 2.14091 39.7512 4.2185C38.8739 5.15886 38.0216 6.35926 38.0216 6.65447C38.0216 7.02243 38.3437 7.52533 38.6767 7.67744C39.261 7.94451 39.6586 7.72007 40.4157 6.69598C41.9779 4.58308 43.979 3.23155 46.7003 2.45145C48.2486 2.00751 50.9647 2.01286 52.5461 2.46285C55.7404 3.37156 58.3415 5.5219 59.7685 8.43348C60.5844 10.0982 60.918 11.5177 60.9336 13.3911C60.9597 16.5316 60.5279 17.5992 57.0236 23.0575C55.5213 25.3975 54.1567 27.4565 53.9911 27.6333C53.2948 28.3765 53.3811 28.422 44.0418 22.3849C39.3029 19.3215 35.3005 16.6935 35.148 16.5447C34.5791 15.9903 34.7605 15.4003 36.1686 13.2249C37.1564 11.6989 37.4603 11.1165 37.4603 10.7491C37.4603 10.0955 37.0822 9.77149 36.3864 9.8289C35.8683 9.87154 35.8049 9.93612 34.8242 11.4212C32.9755 14.2203 32.759 14.6715 32.7646 15.7128C32.773 17.2725 33.2341 17.8901 35.4956 19.3694C36.2288 19.849 36.8288 20.3165 36.8288 20.4081C36.8288 20.4998 36.3236 21.3831 35.7061 22.3711L34.5834 24.1677L33.8818 24.0906C30.9809 23.7718 28.6946 23.702 26.3038 23.8593C23.349 24.0535 23.1812 24.0228 21.7112 23.0178C21.645 22.9725 21.653 22.6582 21.729 22.3188C21.9053 21.5318 21.7056 20.5517 21.2393 19.9153C20.8665 19.4066 15.897 16.0757 14.6048 15.4684C13.9933 15.181 13.7207 15.1302 13.1521 15.1977C11.6038 15.3816 11.7667 15.1783 6.00618 24.1189C3.12612 28.589 0.594499 32.5877 0.38035 33.0049C-0.243994 34.2219 -0.0967839 35.4008 0.800509 36.3687C1.32297 36.9324 6.45441 40.3192 7.36237 40.6995C8.30022 41.0925 9.60251 40.8588 10.3384 40.1656L10.6557 39.8668L11.7739 40.6237C12.419 41.0604 12.9513 41.5319 13.0321 41.7384C13.1092 41.9351 13.3047 42.8162 13.4666 43.6964C14.0004 46.5972 14.667 47.8988 16.4968 49.6122L17.5424 50.5913L16.8837 51.6203C15.5678 53.6758 15.1493 55.2433 15.432 57.0572C15.6129 58.2184 16.3277 59.759 17.0781 60.6047L17.6445 61.2431L16.8862 62.7857C15.9069 64.778 15.6602 65.773 15.7376 67.4176C15.7856 68.4369 15.8707 68.8329 16.1651 69.4065C16.8033 70.6506 17.942 71.4378 19.6177 71.794C20.7499 72.0346 29.5644 72.0785 31.0049 71.8507C32.2503 71.6537 33.6546 71.1796 37.046 69.8116C42.8805 67.4581 47.2001 66.3565 53.2583 65.6769C57.1891 65.2357 60.442 65.0835 65.4568 65.1056C68.0039 65.1168 70.1668 65.1206 70.2633 65.114C70.5671 65.0935 71 64.5536 71 64.1955C71 64.0062 70.8476 63.6739 70.6612 63.4567L70.3225 63.0619L64.241 63.0651C56.8634 63.0689 52.9138 63.3763 47.845 64.341C43.7555 65.1192 41.018 65.9577 35.9166 67.9948C31.0921 69.9213 31.7828 69.7939 25.8472 69.8523C20.3651 69.9063 19.5611 69.8294 18.6251 69.161C17.4578 68.3277 17.5322 66.1232 18.8133 63.5792C19.3241 62.5648 19.4423 62.4196 19.6959 62.495C19.857 62.5428 20.4615 62.6831 21.0394 62.8068C22.3994 63.0978 23.7721 62.9088 25.1811 62.2365C26.4667 61.6231 27.3929 60.759 28.3265 59.302L29.0863 58.1162L30.1234 58.6543C31.0632 59.1419 31.2616 59.1922 32.2404 59.191C33.4644 59.1894 34.3683 58.8549 35.2527 58.0764C35.79 57.6033 36.6167 56.1167 36.6204 55.6169C36.6243 55.0818 36.818 54.917 37.1969 55.1264C37.3894 55.2328 37.9756 55.3102 38.5829 55.3093C39.9254 55.3075 40.9581 54.8447 41.8566 53.8426C42.893 52.6868 43.139 52.0327 43.1415 50.427C43.1438 49.0742 43.1502 49.0474 43.4946 48.9646C44.8487 48.6391 46.3534 47.3758 46.935 46.0759C47.3308 45.1918 47.4711 43.778 47.2342 43.0623C47.1474 42.8002 47.202 42.7497 47.6653 42.6635C49.035 42.4089 50.4112 41.2038 50.9413 39.795C51.1824 39.1539 51.2287 38.7829 51.1807 37.8747C51.0766 35.9069 50.4598 35.0843 47.777 33.3356C46.7724 32.6807 45.9266 32.1228 45.8974 32.0955C45.8682 32.0683 46.4571 31.0966 47.206 29.936L48.5678 27.826L49.7852 28.6226C51.7176 29.8873 52.1271 30.0653 53.1037 30.0653C54.1402 30.0653 55.222 29.5858 55.7376 28.8976C56.7623 27.5299 61.3119 20.2385 61.8133 19.1603C63.5647 15.3946 63.5114 11.2687 61.6625 7.48129C59.9906 4.05668 56.6058 1.31001 52.897 0.368377C51.3395 -0.0270191 48.7515 -0.119607 47.2471 0.166317ZM48.0541 5.02111C47.1236 5.20671 45.875 5.69131 45.0752 6.17733C44.1817 6.72019 42.9256 7.88949 42.5211 8.55477C41.9493 9.49528 42.2983 10.4127 43.2278 10.4127C43.5861 10.4127 43.8238 10.2316 44.634 9.34134C46.7892 6.9729 49.6148 6.3988 52.5495 7.73316C53.4678 8.15065 53.6993 8.20539 54.0415 8.08578C54.4935 7.92776 54.7213 7.59583 54.7213 7.0949C54.7213 5.75322 50.6826 4.4971 48.0541 5.02111ZM16.489 19.092C18.0496 20.0994 19.4044 21.0176 19.4997 21.1327C19.8686 21.5785 19.6487 22.0872 17.8277 24.9982C16.813 26.6206 15.929 28.092 15.8635 28.2679C15.6394 28.87 16.1454 29.6293 16.7772 29.6387C17.2681 29.6461 17.704 29.1842 18.6511 27.653C19.1469 26.8515 19.7643 25.8613 20.0234 25.4525L20.4942 24.7093L20.9011 24.9999C21.1247 25.1596 21.6741 25.4592 22.1218 25.6654C22.812 25.9836 23.1172 26.0387 24.1286 26.0282C24.7846 26.0213 26.7739 26 28.5491 25.9812C33.3383 25.93 35.654 26.3532 36.9398 27.5144C38.1386 28.5971 38.3198 29.7261 37.891 33.4424C37.5502 36.395 37.4803 36.8194 37.3338 36.8194C37.0838 36.8194 34.983 34.9204 34.4167 34.1825C33.1025 32.4701 31.9359 32.0129 30.1997 32.5299C29.7408 32.6665 29.2569 32.9571 28.8519 33.3389C28.4371 33.7301 26.642 36.4008 23.6276 41.1111C21.1019 45.058 18.9567 48.4024 18.8607 48.543C18.7001 48.7782 18.6118 48.7291 17.7581 47.9284C16.4991 46.7475 15.9774 45.6518 15.5026 43.1909C14.954 40.3484 14.8555 40.1755 13.1078 38.9851C12.3843 38.4923 11.9385 38.0985 11.9803 37.9891C12.0185 37.8895 12.7465 36.7223 13.5984 35.3951C14.4756 34.0284 15.1472 32.8349 15.1472 32.643C15.1472 32.4564 14.9922 32.1485 14.8027 31.9586C14.4395 31.5943 14.0337 31.5231 13.6117 31.7495C13.4719 31.8245 12.3967 33.3767 11.2224 35.1989C9.17393 38.3772 8.84387 38.7894 8.34639 38.7894C8.07709 38.7894 2.69122 35.3503 2.34179 34.9553C2.20679 34.8025 2.09621 34.5492 2.09621 34.3923C2.09621 34.0563 12.3375 18.0415 12.8493 17.5773C13.0411 17.4032 13.3002 17.2607 13.4249 17.2607C13.5495 17.2607 14.9285 18.0848 16.489 19.092ZM43.1244 24.2962C45.102 25.5731 46.7205 26.6625 46.7212 26.717C46.7217 26.7714 46.1221 27.7388 45.3884 28.8666L44.0547 30.9173L43.3185 30.4441C39.7463 28.147 39.9126 28.2759 39.5653 27.5327C39.1674 26.6807 38.2136 25.6782 37.307 25.159L36.6433 24.779L37.7026 23.1289L38.762 21.4789L39.1454 21.7267C39.3565 21.863 41.147 23.0192 43.1244 24.2962ZM44.4605 33.7099C46.7871 35.2093 48.445 36.3721 48.6625 36.6573C49.4222 37.6531 49.1593 39.4584 48.1499 40.1792C47.6166 40.5599 46.6986 40.7561 46.0922 40.6189C45.8232 40.5581 44.276 39.6388 42.6543 38.576C40.0517 36.8706 39.7058 36.6005 39.7065 36.2743C39.707 36.0711 39.8329 34.86 39.9863 33.5831C40.1397 32.3061 40.2655 31.2101 40.2661 31.1475C40.2672 30.9996 40.0308 30.8551 44.4605 33.7099ZM32.4751 35.2315C32.8628 35.6739 33.5058 36.3545 33.9041 36.7441L34.6281 37.4526L34.282 37.8747C33.3697 38.988 32.853 40.7917 33.0869 42.0469L33.2033 42.6713L32.4161 42.9039C30.5234 43.4632 29.2393 45.1044 28.9593 47.3218L28.8679 48.0447L28.077 48.1045C27.0631 48.1812 26.3259 48.5389 25.5169 49.3469C24.3763 50.4861 23.949 52.4317 24.4899 54.0235C24.7665 54.8374 25.6483 55.8542 26.6157 56.4747L27.3572 56.9503L26.5303 58.1835C25.2372 60.1118 24.1042 60.7875 22.1611 60.7894C20.7919 60.7908 19.7085 60.3204 18.7677 59.3163C17.5681 58.036 17.1337 55.9348 17.7525 54.4082C18.205 53.2927 29.9641 35.094 30.4588 34.7439C31.2234 34.2028 31.6674 34.3101 32.4751 35.2315ZM41.7367 40.5138C43.2782 41.5388 44.656 42.5407 44.7982 42.7401C45.3741 43.5475 45.3699 44.8873 44.7891 45.6729C44.1004 46.6043 42.6723 47.1626 41.6419 46.9033C41.3753 46.8362 37.1423 44.1824 36.1063 43.4328C35.5234 43.0111 35.2161 42.2933 35.2155 41.3528C35.2148 40.3242 35.4375 39.7176 36.0155 39.1732C36.413 38.7988 36.4573 38.7895 37.1204 38.9425C37.6878 39.0732 37.8988 39.0632 38.3023 38.8866C38.5724 38.7684 38.825 38.6668 38.8636 38.6607C38.9022 38.6548 40.1951 39.4887 41.7367 40.5138ZM35.9367 45.8608C39.2004 47.9489 40.4906 48.87 40.7932 49.3283C41.6728 50.6601 40.584 52.9111 38.9074 53.2264C38.2003 53.3595 37.6353 53.0879 34.7558 51.231C31.7651 49.3024 31.6123 49.1786 31.2636 48.401C30.93 47.6574 31.0296 46.9071 31.5766 46.0421C32.1077 45.2027 32.8252 44.8222 33.7615 44.8835C34.3699 44.9235 34.7118 45.0771 35.9367 45.8608ZM29.6214 50.4785C30.5714 50.9645 33.4305 52.8589 33.9195 53.3264C35.381 54.7238 34.3244 57.0817 32.2368 57.0817C31.5076 57.0817 31.3598 57.0138 29.4467 55.7979C27.2315 54.3902 26.8648 54.1017 26.5711 53.5358C26.2852 52.9848 26.3262 51.9582 26.6602 51.3015C27.2071 50.2269 28.4527 49.8806 29.6214 50.4785Z" fill="#6CC0AE"/>
</svg>
