<svg width="75" height="65" viewBox="0 0 75 65" fill="none" xmlns="http://www.w3.org/2000/svg">
<g style="mix-blend-mode:lighten">
<path fill-rule="evenodd" clip-rule="evenodd" d="M2.84896 11.5857C5.84801 21.2328 11.2548 30.1344 18.2994 37.0229C23.9927 42.5901 30.8216 47.0386 38.3609 50.0916C47.8422 53.931 58.4919 55.2607 68.8479 53.8982C69.5074 53.8114 69.6771 53.8029 69.6429 53.8583C69.6189 53.8971 68.085 55.9254 66.2342 58.3658C64.3834 60.8061 62.8002 62.9294 62.7161 63.0843C62.5412 63.4063 62.5277 63.7027 62.674 64.0113C62.8737 64.4325 63.4362 64.7744 63.9532 64.7888C64.2936 64.7983 64.706 64.657 64.9339 64.4529C65.0267 64.3697 67.118 61.6391 69.5813 58.3848C72.7414 54.21 74.0781 52.4087 74.1217 52.2667C74.1731 52.099 74.1672 52.0045 74.0867 51.7005C74.0041 51.3889 73.959 51.2994 73.7776 51.0868C73.6336 50.918 71.7127 49.437 67.8049 46.4818C61.4379 41.6668 61.8183 41.9244 61.2847 42.0658C60.7939 42.1958 60.4396 42.6363 60.3388 43.2416C60.2802 43.5938 60.415 44.1073 60.6314 44.356C60.7459 44.4877 66.9384 49.2127 69.272 50.9491L69.4826 51.1058L69.1339 51.1651C68.5351 51.2667 66.5279 51.4875 65.4681 51.5682C54.6275 52.3938 43.8238 50.1544 33.9969 45.0449C32.1247 44.0715 29.1185 42.2383 27.3538 40.9939C21.8894 37.1406 17.1348 32.4217 13.4182 27.1628C9.47674 21.5858 6.56503 15.3071 4.75986 8.49252C4.18601 6.3261 3.87604 4.86122 3.4725 2.4086C3.26304 1.13551 3.25165 1.08679 3.12145 0.905882C2.93164 0.642219 2.78938 0.548652 2.48171 0.485294C2.26326 0.440275 2.1486 0.447221 1.86324 0.522822C1.30866 0.669744 0.945743 0.98207 0.783386 1.45213C0.679633 1.75251 0.685046 1.88463 0.843604 2.91621C1.26427 5.6533 2.01893 8.91579 2.84896 11.5857Z" fill="#6CC0AE"/>
</g>
</svg>
