<svg width="54" height="55" viewBox="0 0 54 55" fill="none" xmlns="http://www.w3.org/2000/svg">
<path fill-rule="evenodd" clip-rule="evenodd" d="M8.23506 0.551281C7.93649 0.854578 7.69207 1.15165 7.69207 1.21146C7.69207 1.27127 9.24509 2.87706 11.1432 4.77981C15.2081 8.85449 15.2399 8.90059 15.2399 10.7168C15.2399 11.6558 15.1974 11.9016 14.9407 12.4453C14.7761 12.7939 14.452 13.3044 14.2204 13.5798C13.4749 14.4664 13.4708 14.459 16.1618 17.1699C18.2622 19.2859 18.5241 19.5913 18.5241 19.9244C18.5241 20.4388 17.9891 20.9727 17.4737 20.9727C17.1388 20.9727 16.8537 20.7303 14.8972 18.7832C13.6873 17.579 12.6451 16.5938 12.5815 16.5938C12.4322 16.5938 11.3796 17.6599 11.3796 17.811C11.3796 17.874 11.7166 18.2597 12.1286 18.668L12.8776 19.4103V20.6031V21.7959L11.1685 21.7588C9.48812 21.7223 9.45205 21.7161 9.02441 21.3896C8.27009 20.8136 8.26825 20.7998 8.26825 15.7677V11.2469L5.65001 8.61953C4.20992 7.17449 2.97645 5.99219 2.90881 5.99219C2.75601 5.99219 1.69989 7.0535 1.69989 7.2071C1.69989 7.26898 2.76016 8.37881 4.05608 9.67358L6.41228 12.0276L6.4472 16.4714L6.48211 20.915L6.79267 21.5035C7.25303 22.3763 7.60035 22.7348 8.40641 23.1698L9.1325 23.5617L11.0051 23.6043L12.8776 23.6468V28.9933C12.8776 31.9339 12.8629 34.3398 12.8448 34.3398C12.8268 34.3398 12.5149 34.2354 12.1516 34.1078C9.95481 33.3356 7.27423 33.9638 5.59331 35.6448C4.83922 36.3989 4.3028 37.2809 3.93394 38.373C3.63698 39.2524 3.63698 41.1812 3.93394 42.0605C4.66187 44.2158 6.10818 45.6625 8.26825 46.396C9.19185 46.7096 11.1848 46.6814 12.1179 46.3416C12.4922 46.2053 12.8163 46.0938 12.8381 46.0938C12.8598 46.0938 12.8776 47.7554 12.8776 49.7864V53.4792L13.1605 53.762L13.4433 54.0449H18.1784H22.9135L23.1963 53.762C23.5863 53.372 23.5552 52.9412 23.0897 52.2864C22.3601 51.2602 22.1624 50.6541 22.158 49.4296C22.1542 48.3869 22.1767 48.283 22.5844 47.4581C23.1027 46.4093 23.7699 45.756 24.8413 45.2485C25.5374 44.9187 25.7158 44.8838 26.7057 44.8838C27.6957 44.8838 27.8741 44.9187 28.5702 45.2485C29.6416 45.756 30.3088 46.4093 30.8271 47.4581C31.2348 48.283 31.2573 48.3869 31.2535 49.4296C31.2491 50.6541 31.0513 51.2602 30.3218 52.2864C29.8562 52.9412 29.8251 53.372 30.2152 53.762L30.498 54.0449H35.2331H39.9682L40.251 53.762C40.5193 53.4938 40.5339 53.4094 40.5339 52.1212V50.7633L42.4828 52.7097L44.4318 54.6561L45.0756 54.106C45.4297 53.8035 45.7194 53.4986 45.7194 53.4284C45.7194 53.3582 44.1664 51.744 42.2683 49.8413C38.2034 45.7666 38.1716 45.7205 38.1716 43.9043C38.1716 42.9653 38.2141 42.7195 38.4708 42.1758C38.6354 41.8272 38.9595 41.3167 39.191 41.0413C39.9185 40.1761 39.8903 40.1163 37.7106 37.9121C36.0406 36.2234 35.8093 35.9439 35.8093 35.6166C35.8093 35.1052 36.3453 34.5703 36.8579 34.5703C37.187 34.5703 37.446 34.7819 38.9745 36.2988C39.9323 37.2495 40.7677 38.0273 40.8309 38.0273C40.9795 38.0273 42.0319 36.9606 42.0319 36.8101C42.0319 36.7471 41.6949 36.3614 41.2829 35.9531L40.5339 35.2108V34.0263V32.8418H42.0932C43.8897 32.8418 44.2557 32.9459 44.7535 33.5982L45.0856 34.0334L45.1432 38.7375L45.2009 43.4417L47.7927 46.0353C49.2182 47.4618 50.4199 48.6289 50.4633 48.6289C50.5704 48.6289 51.7116 47.4933 51.7116 47.3867C51.7116 47.3399 50.6513 46.2423 49.3554 44.9475L46.9992 42.5935L46.9643 38.1497L46.9294 33.7061L46.5356 32.98C46.097 32.1709 45.7352 31.8219 44.8675 31.3705C44.3153 31.0833 44.1633 31.0615 42.4064 31.0194L40.5339 30.9743V25.6278C40.5339 22.6872 40.5517 20.2812 40.5734 20.2812C40.5952 20.2812 40.9193 20.3928 41.2936 20.5291C42.2267 20.8689 44.2196 20.8971 45.1432 20.5835C47.3033 19.85 48.7496 18.4033 49.4775 16.248C49.7745 15.3687 49.7745 13.4399 49.4775 12.5605C48.7496 10.4053 47.3033 8.95855 45.1432 8.22508C44.2091 7.90796 42.2214 7.93412 41.2869 8.2759C40.9088 8.41418 40.5847 8.52734 40.5667 8.52734C40.5486 8.52734 40.5339 6.86566 40.5339 4.83466V1.14186L40.251 0.859072L39.9682 0.576172H35.2331H30.498L30.2152 0.859072C29.8251 1.24914 29.8562 1.67989 30.3218 2.33465C31.0513 3.36093 31.2491 3.96694 31.2535 5.19154C31.2573 6.23418 31.2348 6.33812 30.8271 7.16297C30.3088 8.21183 29.6416 8.8651 28.5702 9.37259C27.8741 9.70239 27.6957 9.7373 26.7057 9.7373C25.7158 9.7373 25.5374 9.70239 24.8413 9.37259C23.7699 8.8651 23.1027 8.21183 22.5844 7.16297C22.1767 6.33812 22.1542 6.23418 22.158 5.19154C22.1624 3.96694 22.3601 3.36093 23.0897 2.33465C23.5552 1.67989 23.5863 1.24914 23.1963 0.859072L22.9135 0.576172H18.1784H13.4433L13.1605 0.859072C12.8921 1.12734 12.8776 1.21169 12.8776 2.49989V3.85782L10.9462 1.92891C9.88395 0.86806 8.9615 0 8.8965 0C8.8314 0 8.53374 0.2481 8.23506 0.551281ZM20.8288 2.45276C20.8288 2.47074 20.7156 2.79489 20.5773 3.17298C20.2356 4.10741 20.2094 6.09521 20.5265 7.0293C21.26 9.18937 22.7068 10.6357 24.862 11.3636C25.3202 11.5184 25.831 11.5777 26.7057 11.5777C27.5805 11.5777 28.0913 11.5184 28.5495 11.3636C30.7047 10.6357 32.1515 9.18937 32.885 7.0293C33.1985 6.10569 33.1704 4.11271 32.8306 3.17966C32.6942 2.80538 32.5827 2.48123 32.5827 2.45945C32.5827 2.43778 33.9569 2.41992 35.6364 2.41992H38.6901V6.51593V10.612L38.973 10.8948C39.3631 11.2849 39.7938 11.2538 40.4486 10.7882C41.4749 10.0587 42.0809 9.86095 43.3055 9.85657C44.3481 9.85277 44.4521 9.87524 45.2769 10.2829C46.3258 10.8013 46.979 11.4685 47.4865 12.5398C47.8163 13.2359 47.8512 13.4143 47.8512 14.4043C47.8512 15.3943 47.8163 15.5727 47.4865 16.2688C46.979 17.3401 46.3258 18.0073 45.2769 18.5257C44.4521 18.9334 44.3481 18.9558 43.3055 18.952C42.0809 18.9476 41.4749 18.7499 40.4486 18.0204C39.7938 17.5548 39.3631 17.5237 38.973 17.9138L38.6901 18.1965V22.2927V26.3887H34.5941H30.498L30.2152 26.6716C29.8251 27.0616 29.8562 27.4924 30.3218 28.1472C31.0513 29.1734 31.2491 29.7794 31.2535 31.004C31.2573 32.0467 31.2348 32.1506 30.8271 32.9755C30.3088 34.0243 29.6416 34.6776 28.5702 35.1851C27.8741 35.5149 27.6957 35.5498 26.7057 35.5498C25.7158 35.5498 25.5374 35.5149 24.8413 35.1851C23.7699 34.6776 23.1027 34.0243 22.5844 32.9755C22.1767 32.1506 22.1542 32.0467 22.158 31.004C22.1624 29.7794 22.3601 29.1734 23.0897 28.1472C23.5552 27.4924 23.5863 27.0616 23.1963 26.6716L22.9135 26.3887H18.8174H14.7214V23.842V21.2952L15.3617 21.8805C16.0019 22.4655 16.7986 22.8164 17.487 22.8164C18.1094 22.8164 18.9573 22.4707 19.4082 22.0332C20.261 21.2054 20.528 20.1999 20.1973 19.062C20.012 18.4249 19.8796 18.2618 18.0076 16.3652L16.0151 14.3467L16.4024 13.6553C16.6155 13.275 16.8689 12.6166 16.9656 12.1921C17.4501 10.0643 16.9105 8.05776 15.4149 6.42558L14.7214 5.66872V4.04438V2.41992H17.7751C19.4546 2.41992 20.8288 2.43467 20.8288 2.45276ZM45.1444 5.35137C45.062 5.83328 45.0151 6.24052 45.0401 6.25619C45.0651 6.27198 45.4661 6.41014 45.9311 6.56329C50.1405 7.94933 52.5512 12.639 51.216 16.8439C50.8031 18.144 50.1707 19.1859 49.1835 20.1924L48.3098 21.0832L48.8064 21.7481C49.0795 22.1138 49.3433 22.4274 49.3926 22.4449C49.5995 22.5182 51.068 20.9943 51.6973 20.0535C54.8499 15.3403 53.551 9.00326 48.7959 5.89919C47.8986 5.31334 46.4871 4.69764 45.7086 4.55245L45.2943 4.47524L45.1444 5.35137ZM9.19012 28.0071C9.19012 29.553 9.17791 29.6379 8.91897 29.8969C8.75062 30.0652 8.39016 30.2206 7.96829 30.3066C4.7884 30.9553 1.86052 33.465 0.651601 36.5784C-0.0713797 38.4401 -0.202747 40.8121 0.307741 42.7841C0.531988 43.6502 1.38184 45.5651 1.60251 45.7015C1.66186 45.7381 2.04202 45.5523 2.44718 45.2883L3.18376 44.8083L2.79646 44.0971C2.10862 42.8338 1.87597 41.8529 1.87597 40.2168C1.87597 39.0331 1.92379 38.6223 2.14423 37.9121C2.6077 36.4187 3.14331 35.5397 4.28897 34.392C5.50066 33.1783 6.62374 32.5468 8.29855 32.1375C9.5508 31.8315 10.2209 31.419 10.6492 30.6901C10.9665 30.1505 10.9774 30.0774 11.015 28.2612L11.0537 26.3887H10.1219H9.19012V28.0071ZM20.8288 28.2653C20.8288 28.2832 20.7156 28.6074 20.5773 28.9855C20.2356 29.9199 20.2094 31.9077 20.5265 32.8418C21.26 35.0019 22.7068 36.4482 24.862 37.1761C25.3202 37.3309 25.831 37.3902 26.7057 37.3902C27.5805 37.3902 28.0913 37.3309 28.5495 37.1761C30.7047 36.4482 32.1515 35.0019 32.885 32.8418C33.1985 31.9182 33.1704 29.9252 32.8306 28.9922C32.6942 28.6179 32.5827 28.2937 32.5827 28.2719C32.5827 28.2503 33.9569 28.2324 35.6364 28.2324H38.6901V30.7771C38.6901 32.1768 38.6512 33.3019 38.6037 33.2775C37.5133 32.7162 36.7838 32.614 35.9187 32.9014C34.8082 33.2702 33.9655 34.4377 33.9655 35.6074C33.9655 36.5886 34.264 37.0759 35.8716 38.7188L37.3938 40.2744L37.0106 40.9658C35.711 43.3111 36.1014 46.1272 38.0159 48.2165L38.6901 48.9524V50.5767V52.2012H35.6364C33.9569 52.2012 32.5827 52.1833 32.5827 52.1616C32.5827 52.1399 32.6942 51.8157 32.8306 51.4414C33.1704 50.5084 33.1985 48.5154 32.885 47.5918C32.1515 45.4317 30.7047 43.9854 28.5495 43.2575C27.6701 42.9605 25.7413 42.9605 24.862 43.2575C23.7698 43.6264 22.8878 44.1628 22.1337 44.9169C20.4528 46.5978 19.8245 49.2784 20.5967 51.4752C20.7244 51.8384 20.8288 52.1504 20.8288 52.1683C20.8288 52.1864 19.4546 52.2012 17.7751 52.2012H14.7214V48.1052V44.009L14.4385 43.7263C14.0484 43.3362 13.6177 43.3673 12.9629 43.8329C11.9366 44.5624 11.3306 44.7601 10.106 44.7645C9.06336 44.7683 8.95942 44.7459 8.13457 44.3382C7.08571 43.8198 6.43245 43.1526 5.92496 42.0813C5.59469 41.3842 5.56024 41.2076 5.56024 40.2108C5.56024 39.172 5.58444 39.0612 5.99064 38.2394C6.50896 37.1905 7.17617 36.5373 8.2475 36.0298C8.94674 35.6985 9.11752 35.6654 10.112 35.6691C11.33 35.6735 11.9382 35.8722 12.9629 36.6007C13.6177 37.0663 14.0484 37.0974 14.4385 36.7073L14.7214 36.4245V32.3284V28.2324H17.7751C19.4546 28.2324 20.8288 28.2472 20.8288 28.2653ZM3.35926 46.4985L2.67938 47.131L3.30625 47.7071C3.65115 48.0239 3.9662 48.2832 4.00653 48.2832C4.09515 48.2832 5.07383 46.9469 5.05355 46.8535C5.04572 46.8173 4.81433 46.5803 4.53926 46.3268L4.03914 45.8658L3.35926 46.4985Z" fill="#6CC0AE"/>
</svg>
