<svg width="17" height="17" viewBox="0 0 17 17" fill="none" xmlns="http://www.w3.org/2000/svg">
<path d="M15.2966 12.4441V14.6007C15.2974 14.8009 15.2564 14.999 15.1762 15.1825C15.096 15.3659 14.9784 15.5306 14.8309 15.6659C14.6833 15.8013 14.5092 15.9043 14.3195 15.9684C14.1299 16.0326 13.9289 16.0564 13.7295 16.0384C11.5175 15.798 9.39268 15.0422 7.52582 13.8315C5.78895 12.7278 4.31639 11.2553 3.21271 9.5184C1.99784 7.64306 1.24179 5.50792 1.00583 3.28595C0.987871 3.08716 1.0115 2.88681 1.0752 2.69766C1.13891 2.5085 1.24131 2.33469 1.37588 2.18727C1.51044 2.03986 1.67423 1.92208 1.85681 1.84143C2.03938 1.76079 2.23675 1.71904 2.43635 1.71885H4.59291C4.94177 1.71542 5.27998 1.83896 5.5445 2.06644C5.80901 2.29392 5.98179 2.60983 6.03061 2.95528C6.12163 3.64542 6.29044 4.32306 6.53381 4.97525C6.63053 5.23255 6.65146 5.51217 6.59412 5.781C6.53679 6.04983 6.4036 6.29658 6.21032 6.49203L5.29738 7.40497C6.32071 9.20465 7.81082 10.6948 9.6105 11.7181L10.5234 10.8051C10.7189 10.6119 10.9656 10.4787 11.2345 10.4213C11.5033 10.364 11.7829 10.3849 12.0402 10.4817C12.6924 10.725 13.37 10.8938 14.0602 10.9849C14.4094 11.0341 14.7283 11.21 14.9563 11.4791C15.1842 11.7481 15.3054 12.0916 15.2966 12.4441Z" fill="#6CC0AE"/>
<path d="M15.2966 12.4441V14.6007C15.2974 14.8009 15.2564 14.999 15.1762 15.1825C15.096 15.3659 14.9784 15.5306 14.8309 15.6659C14.6833 15.8013 14.5092 15.9043 14.3195 15.9684C14.1299 16.0326 13.9289 16.0564 13.7295 16.0384C11.5175 15.798 9.39268 15.0422 7.52582 13.8315C5.78895 12.7278 4.31639 11.2553 3.21271 9.5184C1.99784 7.64306 1.24179 5.50792 1.00583 3.28595C0.987871 3.08716 1.0115 2.88681 1.0752 2.69766C1.13891 2.5085 1.24131 2.33469 1.37588 2.18727C1.51044 2.03986 1.67423 1.92208 1.85681 1.84143C2.03938 1.76079 2.23675 1.71904 2.43635 1.71885H4.59291C4.94177 1.71542 5.27998 1.83896 5.5445 2.06644C5.80901 2.29392 5.98179 2.60983 6.03061 2.95528C6.12163 3.64542 6.29044 4.32306 6.53381 4.97525C6.63053 5.23255 6.65146 5.51217 6.59412 5.781C6.53679 6.04983 6.4036 6.29658 6.21032 6.49203L5.29738 7.40497C6.32071 9.20465 7.81082 10.6948 9.6105 11.7181L10.5234 10.8051C10.7189 10.6119 10.9656 10.4787 11.2345 10.4213C11.5033 10.364 11.7829 10.3849 12.0402 10.4817C12.6924 10.725 13.37 10.8938 14.0602 10.9849C14.4094 11.0341 14.7283 11.21 14.9563 11.4791C15.1842 11.7481 15.3054 12.0916 15.2966 12.4441Z" fill="#6CC0AE"/>
<path d="M10.3006 3.87541C11.0027 4.0124 11.648 4.35579 12.1538 4.86163C12.6597 5.36747 13.0031 6.01275 13.1401 6.71488M10.3006 1C11.7593 1.16206 13.1196 1.8153 14.1581 2.85249C15.1966 3.88967 15.8516 5.24914 16.0155 6.70769M15.2966 12.4441V14.6007C15.2974 14.8009 15.2564 14.999 15.1762 15.1825C15.096 15.3659 14.9784 15.5306 14.8309 15.6659C14.6833 15.8013 14.5092 15.9043 14.3195 15.9684C14.1299 16.0326 13.9289 16.0564 13.7295 16.0384C11.5175 15.798 9.39268 15.0422 7.52582 13.8315C5.78895 12.7278 4.31639 11.2553 3.21271 9.5184C1.99784 7.64306 1.24179 5.50792 1.00583 3.28595C0.987871 3.08716 1.0115 2.88681 1.0752 2.69766C1.13891 2.5085 1.24131 2.33469 1.37588 2.18727C1.51044 2.03986 1.67423 1.92208 1.85681 1.84143C2.03938 1.76079 2.23675 1.71904 2.43635 1.71885H4.59291C4.94177 1.71542 5.27998 1.83896 5.5445 2.06644C5.80901 2.29392 5.98179 2.60983 6.03061 2.95528C6.12163 3.64542 6.29044 4.32306 6.53381 4.97525C6.63053 5.23255 6.65146 5.51217 6.59412 5.781C6.53679 6.04983 6.4036 6.29658 6.21032 6.49203L5.29738 7.40497C6.32071 9.20465 7.81082 10.6948 9.6105 11.7181L10.5234 10.8051C10.7189 10.6119 10.9656 10.4787 11.2345 10.4213C11.5033 10.364 11.7829 10.3849 12.0402 10.4817C12.6924 10.725 13.37 10.8938 14.0602 10.9849C14.4094 11.0341 14.7283 11.21 14.9563 11.4791C15.1842 11.7481 15.3054 12.0916 15.2966 12.4441Z" stroke="#6CC0AE" stroke-width="1.5" stroke-linecap="round" stroke-linejoin="round"/>
</svg>
