<svg width="81" height="82" viewBox="0 0 81 82" fill="none" xmlns="http://www.w3.org/2000/svg">
<path fill-rule="evenodd" clip-rule="evenodd" d="M38.2765 0.16222C33.9082 1.09622 31.5978 3.53099 31.1985 7.6209C31.1378 8.24106 31.0249 8.74837 30.9474 8.74837C30.567 8.74837 27.5999 10.2955 26.1813 11.2335C24.2165 12.5328 21.6661 14.9988 20.3275 16.894C18.4285 19.5827 16.972 23.1196 16.4894 26.2145C16.3788 26.9242 16.2356 27.4864 16.1714 27.4634C16.1071 27.4407 14.577 25.7269 12.7712 23.6552C7.86272 18.0239 8.19958 18.3657 7.55841 18.3657C7.06812 18.3657 6.6717 18.6591 4.17642 20.8692C0.115623 24.4661 0 24.5864 0 25.2108C0 25.5813 0.157394 25.9167 0.529994 26.3395C0.821594 26.6703 2.85739 28.9796 5.05424 31.4711C7.25109 33.9628 9.18445 36.2709 9.35042 36.6003C9.90614 37.7026 10.3167 39.3607 11.7563 46.316C13.4277 54.3913 13.6167 55.0915 14.4128 56.1556C15.0287 56.9792 26.4259 66.4179 27.4573 66.9587C28.6537 67.5859 30.3817 67.4662 31.5354 66.6761C31.844 66.4647 32.129 66.2918 32.1688 66.2918C32.2086 66.2918 32.2412 66.6297 32.2412 67.0426C32.2412 68.0085 31.7302 69.0733 31.0689 69.4857C30.786 69.6621 27.5 70.6753 23.7667 71.7371C20.0332 72.7988 16.6426 73.8397 16.2319 74.0504C13.9369 75.2269 12.2294 77.9295 12.2294 80.3857C12.2294 81.1675 12.2941 81.4073 12.5771 81.6732C12.9141 81.9901 13.106 82 18.9086 82C24.7218 82 24.9043 81.9905 25.3109 81.6677C25.8897 81.2083 25.8897 80.3873 25.3109 79.928C24.9075 79.6075 24.711 79.5957 19.8315 79.5957C14.0686 79.5957 14.3981 79.6952 15.2421 78.2101C15.7424 77.3298 16.5628 76.5569 17.4452 76.1343C17.7438 75.9913 21.0343 75.013 24.7573 73.9603C30.3733 72.3725 31.6666 71.9531 32.3482 71.4997C33.8648 70.4908 34.7134 68.7333 34.5945 66.8473C34.5508 66.155 34.5848 65.8257 34.6952 65.8734C37.2438 66.977 38.3881 67.2479 40.5 67.2479C42.6087 67.2479 43.7686 66.9736 46.2971 65.8768C46.3959 65.8338 46.4579 66.3387 46.4613 67.2118C46.4659 68.3677 46.5355 68.7576 46.8547 69.4174C47.325 70.3894 48.297 71.4008 49.1559 71.8119C49.5053 71.9791 52.7642 72.9609 56.3979 73.9935C60.0315 75.026 63.2834 76.0041 63.6244 76.1671C64.4115 76.5435 65.4763 77.6119 65.9008 78.452C66.5369 79.7101 68.3335 79.5957 47.9576 79.5957H29.6855L29.2958 79.9892C28.7988 80.4906 28.7988 81.1051 29.2958 81.6065L29.6855 82H48.8805C67.9781 82 68.0772 81.9984 68.4229 81.6732C68.706 81.4073 68.7706 81.1675 68.7706 80.3857C68.7706 77.8234 66.9953 75.1185 64.5618 73.9733C64.0376 73.7266 60.6477 72.6885 57.0288 71.6667C53.4097 70.6447 50.2163 69.6638 49.9327 69.4866C49.2698 69.0733 48.7588 68.0093 48.7588 67.0426C48.7588 66.6297 48.7914 66.2918 48.8312 66.2918C48.871 66.2918 49.156 66.4647 49.4646 66.6761C50.6167 67.4651 52.3412 67.5856 53.5427 66.9611C54.2239 66.6069 65.8009 57.1568 66.2858 56.5591C67.3958 55.1907 67.4106 55.1392 69.2421 46.3117C70.6873 39.3459 71.0955 37.6998 71.6496 36.6003C71.8156 36.2709 73.7489 33.9628 75.9458 31.4711C78.1426 28.9796 80.1784 26.6703 80.47 26.3395C80.8426 25.9167 81 25.5813 81 25.2108C81 24.5864 80.8844 24.4661 76.8236 20.8692C74.4258 18.7455 73.9198 18.366 73.4883 18.3681C73.2084 18.3695 72.9011 18.4235 72.8053 18.4883C72.562 18.6529 70.089 21.5092 69.7867 21.9745C69.3227 22.6896 69.9006 23.6552 70.7927 23.6552C71.3607 23.6552 71.4712 23.5672 72.8684 22.0044L73.5513 21.2404L73.9598 21.5647C75.3564 22.6732 78.1324 25.3029 78.0494 25.4385C77.9947 25.5276 76.1228 27.6694 73.8895 30.198C69.4416 35.2336 69.255 35.5158 68.5336 38.2933C68.3235 39.1023 67.5022 42.8915 66.7086 46.7139C65.9148 50.5363 65.1313 53.9264 64.9672 54.2474C64.5602 55.0442 64.3656 55.2164 58.0872 60.3345C54.1186 63.5696 52.4154 64.8641 52.0315 64.9367C51.4144 65.0535 50.6606 64.7256 50.2773 64.1732C49.9848 63.7518 49.954 62.8868 50.214 62.3965C50.3155 62.2051 51.6745 60.3345 53.2342 58.2395C56.0504 54.4566 56.0738 54.4305 56.6638 54.4305C57.9312 54.4305 59.018 53.8715 59.7375 52.8497C60.1598 52.2501 64.1647 40.3923 64.1647 39.7418C64.1647 38.8272 62.9564 38.3255 62.268 38.9542C62.0686 39.1364 61.2327 41.4282 59.9573 45.2899C57.8724 51.602 57.6755 52.0261 56.8302 52.0261C56.1943 52.0261 55.5882 51.4518 55.5882 50.8491C55.5882 50.5672 56.2332 48.3905 57.0216 46.012C58.8055 40.6306 59.2926 38.9455 59.7024 36.7408C60.1992 34.068 60.7398 33.339 63.2119 32.0097C64.8264 31.1416 65.118 30.8891 66.8634 28.8488C68.0467 27.4655 68.2941 27.084 68.2941 26.6428C68.2941 25.9755 67.8319 25.5252 67.1473 25.5252C66.7254 25.5252 66.485 25.6975 65.7245 26.545C65.2212 27.106 64.7832 27.5327 64.7512 27.4934C64.7193 27.4541 64.6004 26.881 64.4871 26.2198C63.8325 22.3996 61.8438 18.2358 59.224 15.2003C57.1134 12.7548 53.3641 10.1527 50.5108 9.15294L49.9599 8.95995L49.768 7.45164C49.5458 5.7053 49.2615 4.81971 48.5773 3.7437C47.595 2.19868 45.6916 0.933526 43.4382 0.327477C42.1144 -0.0285232 39.5518 -0.110591 38.2765 0.16222ZM42.4318 2.56878C43.6881 2.83743 44.9614 3.42104 45.7737 4.10018C46.4741 4.68603 47.2646 6.27128 47.392 7.34585C47.4965 8.22807 47.5359 8.21349 45.95 7.87881C42.9313 7.2415 38.0541 7.16312 35.0384 7.70345C34.262 7.84242 33.6007 7.92978 33.5686 7.8974C33.4177 7.74529 33.8734 6.06531 34.2598 5.34882C35.4906 3.0668 39.0688 1.84941 42.4318 2.56878ZM45.1243 10.1722C49.8588 11.0102 53.5516 12.8872 56.6285 16.0195C58.9626 18.3956 60.5051 20.9287 61.5246 24.0599C62.0215 25.5858 62.4172 27.7327 62.4175 28.9046L62.4176 29.7463L61.6011 30.1869C60.3866 30.8425 59.2261 31.826 58.6519 32.6863L58.142 33.4499L57.5962 32.3594C54.0329 25.2386 45.4181 18.027 37.1644 15.2553C34.1764 14.2519 30.6008 13.5665 28.2747 13.5512L27.3971 13.5455L27.8578 13.1653C29.8042 11.5592 33.1163 10.3373 36.7954 9.8683C38.5733 9.64165 43.0496 9.80499 45.1243 10.1722ZM32.3084 16.4295C34.0429 16.7886 36.3131 17.4204 37.1593 17.7796L37.7033 18.0105L36.2674 18.7382C31.2233 21.2949 26.7994 25.6362 23.9101 30.8651C23.4463 31.7043 23.018 32.5531 22.9581 32.7515C22.8088 33.246 22.703 33.2061 22.178 32.4572C21.6521 31.7072 20.5643 30.8224 19.3712 30.1741L18.5366 29.7205L18.6394 28.3308C18.9586 24.0115 20.8639 19.5232 23.6024 16.6387L24.287 15.9176L27.5097 16.0104C29.8237 16.0769 31.1767 16.1952 32.3084 16.4295ZM42.3767 20.3071C49.1884 24.3535 54.0526 29.6394 56.4676 35.6202L57.1366 37.2769L56.845 38.5204C56.6844 39.2045 55.7961 42.0362 54.8707 44.8132C52.957 50.5561 52.8604 51.1308 53.5879 52.4443L54.0016 53.1913L50.9832 57.2635C49.323 59.5034 47.9647 61.4344 47.9647 61.5546C47.9647 61.8656 45.9775 63.3123 44.773 63.8782C43.3136 64.5637 42.0576 64.8492 40.5 64.8492C38.9424 64.8492 37.6864 64.5637 36.227 63.8782C35.0225 63.3123 33.0353 61.8656 33.0353 61.5546C33.0353 61.4344 31.6764 59.5026 30.0156 57.2619L26.996 53.1879L27.3931 52.4868C28.0952 51.2473 27.9882 50.497 26.461 45.9575C24.9482 41.4609 24.0383 38.4586 23.9036 37.5201C23.8286 36.9967 23.9417 36.5612 24.5192 35.1493C27.4274 28.0402 32.9211 22.4855 39.6265 19.8744C40.1506 19.6704 40.6734 19.4998 40.7884 19.4955C40.9033 19.4912 41.618 19.8563 42.3767 20.3071ZM11.5147 25.845C13.6985 28.3612 15.7712 30.6585 16.1206 30.9502C16.47 31.2419 17.3232 31.7891 18.0168 32.1663C19.3523 32.8927 20.3056 33.7333 20.7276 34.5568C20.8685 34.8317 21.1211 35.7851 21.2893 36.6752C21.6226 38.4406 22.411 41.1352 24.2552 46.8132C24.9131 48.8391 25.4515 50.6642 25.4515 50.869C25.4515 51.4154 24.8136 52.0261 24.2428 52.0261C23.315 52.0261 23.1595 51.6987 21.0427 45.2899C19.7673 41.4282 18.9314 39.1364 18.732 38.9542C18.0436 38.3255 16.8353 38.8272 16.8353 39.7418C16.8353 40.3092 20.8265 52.2251 21.2079 52.7962C21.8965 53.8275 23.0464 54.4276 24.3372 54.4295C24.9256 54.4305 24.9524 54.4603 27.7658 58.2395C29.3255 60.3345 30.6845 62.2051 30.786 62.3965C30.8875 62.5878 30.9706 63.0071 30.9706 63.3282C30.9706 64.3693 29.711 65.2654 28.758 64.9024C28.381 64.7588 18.0711 56.4615 16.861 55.3277C16.5696 55.0546 16.197 54.5688 16.0331 54.2479C15.8692 53.9272 15.0525 50.3928 14.2182 46.3938C13.3837 42.3949 12.5588 38.5972 12.3847 37.9546C11.7204 35.5024 11.4667 35.131 7.01587 30.0893C4.73104 27.5009 2.90234 25.3165 2.95237 25.235C3.08642 25.016 7.35655 21.2492 7.45772 21.2605C7.50521 21.2657 9.33088 23.3288 11.5147 25.845ZM30.8234 38.5034C30.2824 39.1973 30.395 39.649 31.3387 40.5715C33.1844 42.3758 35.7883 42.409 37.6812 40.6526C38.3889 39.9957 38.4988 39.8122 38.4988 39.2874C38.4988 38.8471 38.3983 38.5986 38.1318 38.381C37.5942 37.9416 37.0829 38.0123 36.4108 38.619C35.6144 39.3376 35.231 39.5237 34.5467 39.5237C33.8488 39.5237 33.2675 39.2336 32.6482 38.5762C32.0368 37.9272 31.2954 37.8977 30.8234 38.5034ZM42.7958 38.4746C42.5814 38.691 42.4059 38.983 42.4059 39.1236C42.4059 39.9342 43.7132 41.2658 44.9145 41.6789C46.6134 42.2632 48.3438 41.8594 49.6613 40.5715C50.6325 39.6223 50.744 39.1082 50.116 38.4746C49.5793 37.9328 49.0342 37.9767 48.3225 38.619C47.5262 39.3376 47.1428 39.5237 46.4584 39.5237C45.7606 39.5237 45.1793 39.2336 44.56 38.5762C43.9789 37.9594 43.3425 37.9227 42.7958 38.4746ZM36.7364 50.7573C36.2249 50.9482 35.8393 51.6238 35.9615 52.1148C36.0926 52.6424 37.2719 53.8348 38.0679 54.2445C39.4325 54.9472 41.1569 54.9878 42.6629 54.3527C43.4859 54.0057 44.5035 53.1302 44.8597 52.4624C45.1173 51.9798 45.1313 51.8338 44.9601 51.4166C44.578 50.4854 43.3746 50.4019 42.8126 51.2673C42.4242 51.8658 41.3222 52.4087 40.5035 52.4052C39.663 52.4015 38.5973 51.8989 38.2298 51.3327C37.9204 50.8562 37.2073 50.5815 36.7364 50.7573Z" fill="#6CC0AE"/>
</svg>
