<svg width="43" height="41" viewBox="0 0 43 41" fill="none" xmlns="http://www.w3.org/2000/svg">
<rect x="1.48047" y="1.25" width="39.5" height="38.5" rx="3.75" stroke="#6CC0AE" stroke-width="2.5"/>
<path fill-rule="evenodd" clip-rule="evenodd" d="M9.2871 9.74563C7.55467 10.1168 6.18173 11.5044 5.82492 13.2447C5.74179 13.6504 5.73049 14.6121 5.73049 21.3007C5.73049 29.5884 5.72105 29.3422 6.07158 30.1758C6.51898 31.2395 7.44637 32.1663 8.51283 32.6151C9.36037 32.9718 8.74234 32.955 21.0306 32.955C33.1798 32.955 32.668 32.9676 33.485 32.6479C34.5127 32.2458 35.478 31.3145 35.9471 30.2726C36.3196 29.4455 36.295 30.0288 36.3157 21.5099C36.3325 14.5702 36.3243 13.6896 36.2387 13.2653C35.8811 11.4922 34.5028 10.1072 32.7318 9.74144C32.32 9.6564 31.0833 9.64689 20.9882 9.65126C11.2045 9.65544 9.6494 9.66799 9.2871 9.74563ZM32.3981 11.506C33.4218 11.7212 34.2496 12.5495 34.4699 13.5789C34.5647 14.0217 34.566 28.5703 34.4713 29.0225C34.3755 29.4802 34.0314 30.1 33.7024 30.4078C33.3644 30.724 32.8375 31.0015 32.3981 31.0948C31.9457 31.1909 10.112 31.1904 9.66303 31.0943C8.63625 30.8745 7.811 30.0493 7.59124 29.0225C7.49622 28.5784 7.49514 14.0304 7.59011 13.5789C7.69894 13.0614 7.9352 12.6326 8.32601 12.2432C8.70546 11.8652 9.08216 11.6502 9.58539 11.5243C9.99371 11.4221 31.9158 11.4045 32.3981 11.506ZM17.9084 16.045C17.7719 16.1171 17.6382 16.2546 17.5648 16.3986C17.4474 16.6287 17.4446 16.7436 17.4446 21.3007C17.4446 25.8596 17.4474 25.9727 17.5649 26.2031C17.7757 26.6162 18.3083 26.7912 18.7176 26.5817C18.8228 26.5279 20.543 25.464 22.5402 24.2174C25.8148 22.1737 26.1833 21.9281 26.2906 21.7179C26.4412 21.4226 26.4412 21.1788 26.2906 20.8835C26.1833 20.6733 25.8148 20.4277 22.5402 18.384C20.543 17.1374 18.8228 16.0735 18.7176 16.0197C18.4659 15.8909 18.1837 15.8997 17.9084 16.045ZM21.9153 20.1051C22.9408 20.7459 23.7798 21.2839 23.7798 21.3007C23.7798 21.3262 22.7577 21.9724 19.6442 23.9152L19.2376 24.1689V21.3007V18.4325L19.6442 18.6862C19.8679 18.8257 20.8899 19.4643 21.9153 20.1051Z" fill="#6CC0AE"/>
</svg>
