<svg width="31" height="19" viewBox="0 0 31 19" fill="none" xmlns="http://www.w3.org/2000/svg">
<path d="M29.875 8.4829L21.6531 0.261602C21.5752 0.180405 21.482 0.115512 21.3788 0.0707024C21.2756 0.0258931 21.1646 0.00206353 21.0521 0.000601679L21.0374 1.63932e-06C20.815 -0.000434096 20.6013 0.0860099 20.4418 0.240902C20.3602 0.321111 20.2953 0.416727 20.2509 0.522203C20.2066 0.627678 20.1836 0.740913 20.1834 0.855337C20.1831 0.969761 20.2056 1.0831 20.2495 1.18877C20.2934 1.29444 20.3578 1.39034 20.4391 1.4709L27.2009 8.232H0.856578C0.743315 8.23078 0.630935 8.25203 0.52594 8.29453C0.420945 8.33702 0.325421 8.39992 0.244896 8.47958C0.164371 8.55924 0.100445 8.65408 0.0568158 8.75861C0.0131871 8.86314 -0.00927734 8.97528 -0.00927734 9.08855C-0.00927734 9.20182 0.0131871 9.31396 0.0568158 9.41849C0.100445 9.52302 0.164371 9.61786 0.244896 9.69752C0.325421 9.77718 0.420945 9.84008 0.52594 9.88258C0.630935 9.92507 0.743315 9.94633 0.856578 9.9451H27.2009L20.4418 16.7042C20.2785 16.8621 20.1846 17.0783 20.1806 17.3054C20.1766 17.5325 20.2628 17.7519 20.4204 17.9155C20.4995 17.9974 20.5942 18.0624 20.6991 18.1068C20.8039 18.1512 20.9166 18.174 21.0304 18.1738C21.2627 18.1724 21.4854 18.0808 21.6514 17.9182L29.8747 9.6942C30.0348 9.53333 30.1247 9.3156 30.1248 9.08861C30.1249 8.86163 30.035 8.64385 29.875 8.4829Z" fill="#6CC0AE"/>
</svg>
