<svg width="113" height="774" viewBox="0 0 113 774" fill="none" xmlns="http://www.w3.org/2000/svg">
<g style="mix-blend-mode:multiply" opacity="0.2">
<path d="M0.756114 773.383L0.756112 734.133C0.756111 714.909 5.88262 700.277 16.1356 690.237C26.3886 680.198 39.9525 675.178 56.8273 675.178C73.702 675.178 87.2659 680.198 97.5189 690.237C107.772 700.277 112.898 714.908 112.898 734.133L112.898 773.383L0.756114 773.383ZM86.1445 704.175C79.3091 697.233 69.5367 693.762 56.8273 693.762C44.1178 693.762 34.3988 697.233 27.6703 704.175C20.8349 711.01 17.4173 721.05 17.4173 734.293L17.4173 755.12L96.2373 755.12L96.2373 734.293C96.2373 721.05 92.873 711.01 86.1445 704.175ZM112.898 652.603L112.898 671.988L0.756107 624.568L0.756106 604.542L112.898 557.282L112.898 576.507L88.7077 586.439L88.7077 642.671L112.898 652.603ZM24.7866 616.718L72.6874 636.423L72.6874 592.847L24.7866 612.552C22.437 613.407 20.3543 614.101 18.5387 614.635C20.3543 615.169 22.437 615.863 24.7866 616.718ZM112.898 524.514L112.898 542.778L0.756104 542.778L0.756102 497.921C0.756101 492.367 1.34352 487.187 2.51834 482.381C3.69316 477.468 5.6156 472.876 8.28565 468.603C10.8489 464.331 14.4802 460.967 19.1795 458.511C23.8788 456.054 29.4325 454.826 35.8406 454.826C45.2392 454.826 52.662 457.336 58.1089 462.356C63.449 467.375 67.0803 473.944 69.0027 482.061L112.898 446.175L112.898 468.123L70.9252 501.766L70.9252 524.514L112.898 524.514ZM17.4173 524.514L54.7446 524.514L54.7446 497.12C54.7446 490.284 53.3028 484.624 50.4191 480.138C47.5355 475.652 42.7828 473.41 36.161 473.41C29.5393 473.41 24.7866 475.652 21.9029 480.138C18.9125 484.624 17.4173 490.284 17.4173 497.12L17.4173 524.514ZM0.756099 430.448L0.756097 391.198C0.756096 371.973 5.8826 357.341 16.1356 347.302C26.3886 337.263 39.9525 332.243 56.8273 332.243C73.702 332.243 87.2659 337.263 97.5189 347.302C107.772 357.341 112.898 371.973 112.898 391.198L112.898 430.448L0.756099 430.448ZM86.1445 361.24C79.3091 354.298 69.5367 350.826 56.8273 350.826C44.1178 350.826 34.3988 354.298 27.6703 361.24C20.8349 368.075 17.4172 378.114 17.4172 391.358L17.4172 412.184L96.2373 412.184L96.2373 391.358C96.2373 378.114 92.873 368.075 86.1445 361.24ZM112.898 309.668L112.898 329.053L0.756092 281.632L0.756091 261.607L112.898 214.347L112.898 233.571L88.7077 243.504L88.7077 299.735L112.898 309.668ZM24.7866 273.782L72.6874 293.487L72.6874 249.912L24.7866 269.617C22.4369 270.472 20.3543 271.166 18.5387 271.7C20.3543 272.234 22.4369 272.928 24.7866 273.782ZM112.898 181.579L112.898 199.842L0.756089 199.842L0.756087 154.985C0.756086 149.432 1.3435 144.252 2.51833 139.446C3.69315 134.533 5.61559 129.94 8.28564 125.668C10.8489 121.396 14.4802 118.032 19.1795 115.575C23.8788 113.119 29.4325 111.891 35.8406 111.891C45.2392 111.891 52.662 114.401 58.1089 119.42C63.449 124.44 67.0803 131.008 69.0027 139.125L112.898 103.24L112.898 125.188L70.9251 158.83L70.9251 181.579L112.898 181.579ZM17.4172 181.579L54.7446 181.579L54.7446 154.184C54.7446 147.349 53.3028 141.689 50.4191 137.203C47.5355 132.717 42.7828 130.474 36.161 130.474C29.5393 130.474 24.7866 132.717 21.9029 137.203C18.9125 141.689 17.4172 147.349 17.4172 154.184L17.4172 181.579ZM112.898 44.4201L112.898 62.6833L71.7262 62.6833L0.756084 106.579L0.756084 86.073L55.065 53.5517L0.756081 20.8702L0.75608 0.36422L71.7262 44.4201L112.898 44.4201Z" fill="#25282B"/>
</g>
</svg>
