<svg width="434" height="383" viewBox="0 0 434 383" fill="none" xmlns="http://www.w3.org/2000/svg">
<circle opacity="0.5" cx="222" cy="188" r="56" fill="#6CC0AE" stroke="#6CC0AE" stroke-width="2"/>
<circle cx="222" cy="188.001" r="44.6942" fill="#6CC0AE" stroke="#6CC0AE" stroke-width="2"/>
<path fill-rule="evenodd" clip-rule="evenodd" d="M211.417 157.622C210.53 158.12 209.886 159.041 209.747 160.007C209.675 160.51 209.722 161.039 209.938 162.145C210.287 163.932 210.486 165.647 210.537 167.308C210.731 173.555 208.765 180.002 205.041 185.335C204.63 185.923 204.27 186.412 204.242 186.421C204.213 186.43 204.048 186.051 203.876 185.579C203.532 184.635 203.267 184.353 202.5 184.114C201.891 183.925 201.221 184.094 196.35 185.672C191.438 187.263 191.446 187.259 191.159 188.29L191.012 188.821L192.525 193.729C194.018 198.573 194.042 198.64 194.356 198.859C194.795 199.164 195.345 198.993 195.529 198.494C195.658 198.143 195.626 198.023 194.198 193.491C192.788 189.012 192.742 188.841 192.908 188.668C193.094 188.475 201.644 185.733 201.988 185.757C202.161 185.769 202.565 186.995 206.197 198.527C209.829 210.058 210.2 211.295 210.065 211.404C209.983 211.47 207.919 212.153 205.479 212.921C202.172 213.963 200.999 214.296 200.872 214.228C200.743 214.159 200.203 212.556 198.668 207.681L196.635 201.226L196.285 201.04C195.841 200.803 195.428 200.933 195.199 201.382L195.02 201.734L197.106 208.348C199.065 214.561 199.212 214.985 199.533 215.349C199.926 215.792 200.431 215.994 201.102 215.974C201.68 215.956 210.317 213.253 210.895 212.909C211.341 212.643 211.641 212.259 211.824 211.721C211.925 211.425 211.895 211.144 211.68 210.357C211.511 209.74 211.453 209.351 211.526 209.328C211.591 209.308 213.941 209.477 216.75 209.703L221.856 210.114L223.847 209.525C225.998 208.889 226.322 208.718 226.383 208.193C226.433 207.758 226.373 207.625 226.013 207.374L225.699 207.156L223.78 207.76L221.86 208.365L216.358 207.932L210.857 207.498L207.833 197.986L204.81 188.473L205.474 187.642C207.173 185.519 209.176 181.946 210.184 179.244C212.234 173.742 212.761 167.877 211.696 162.409C211.351 160.64 211.34 160.324 211.602 159.808C211.868 159.285 212.377 158.992 213.189 158.894C215.079 158.665 216.903 159.706 217.669 161.45C217.786 161.714 218.582 165.437 219.453 169.783C221.094 177.978 221.084 177.939 221.631 178.047C221.773 178.075 222.785 177.807 224.091 177.395C226.303 176.699 226.31 176.696 226.489 176.344C226.588 176.15 226.628 175.864 226.579 175.707C226.53 175.551 226.332 175.34 226.141 175.237C225.8 175.055 225.752 175.064 224.104 175.583L222.417 176.114L222.349 175.683C222.311 175.447 221.645 172.097 220.869 168.239C219.558 161.716 219.433 161.173 219.081 160.482C218.311 158.965 216.927 157.819 215.3 157.351C214.087 157.001 212.298 157.126 211.417 157.622ZM228.617 174.407C228.337 174.824 228.488 175.375 228.945 175.601C229.262 175.757 229.301 175.747 235.245 173.909C241.154 172.081 241.232 172.06 241.739 172.16C243.273 172.462 244.401 173.983 244.174 175.443C244.085 176.02 243.727 176.733 243.31 177.171C242.962 177.535 242.831 177.584 237.619 179.285C232.303 181.019 232.283 181.027 232.123 181.34C231.928 181.725 232.074 182.264 232.432 182.478C232.683 182.628 232.885 182.574 238.476 180.848L244.26 179.062L244.985 179.178C247.069 179.512 248.13 181.807 247.031 183.605C246.437 184.579 246.369 184.608 240.165 186.562C234.916 188.215 234.589 188.331 234.418 188.594C234.155 188.999 234.354 189.552 234.839 189.766L235.213 189.93L240.079 188.4C245.438 186.715 245.322 186.738 246.383 187.193C248.343 188.034 248.661 190.921 246.935 192.204C246.575 192.472 245.732 192.767 241.74 194.024L236.975 195.525L236.763 195.874C236.514 196.284 236.635 196.853 237.014 197.056C237.229 197.17 237.653 197.067 240.796 196.132C244.734 194.96 244.735 194.959 245.825 195.469C247.882 196.432 248.082 199.229 246.187 200.523C245.771 200.807 244.405 201.264 237.106 203.563C228.657 206.224 228.511 206.274 228.368 206.556C228.171 206.943 228.363 207.536 228.745 207.715C229.027 207.848 229.353 207.755 237.591 205.191C247.085 202.237 247.159 202.208 248.06 201.17C249.281 199.764 249.554 197.67 248.727 196.059C248.397 195.416 247.701 194.583 247.272 194.317C247.084 194.201 247.111 194.158 247.536 193.893C248.722 193.156 249.595 191.797 249.775 190.408C249.853 189.801 249.82 189.577 249.501 188.565C249.09 187.26 248.738 186.722 247.905 186.123L247.404 185.763L247.811 185.373C248.035 185.158 248.394 184.658 248.61 184.262C249.993 181.722 248.636 178.423 245.884 177.636L245.242 177.452L245.506 176.84C246.236 175.147 245.882 173.242 244.58 171.853C243.921 171.15 242.567 170.486 241.63 170.406L240.923 170.346L234.878 172.215C228.866 174.073 228.832 174.086 228.617 174.407ZM202.29 205.886C201.57 206.458 201.12 207.39 201.117 208.314C201.114 209.023 201.568 210.05 202.101 210.54C203.241 211.589 205.063 211.574 206.139 210.505C206.985 209.666 207.256 208.602 206.914 207.465C206.421 205.828 204.785 204.927 203.233 205.438C202.876 205.556 202.451 205.757 202.29 205.886ZM204.366 207.051C205.273 207.216 205.692 208.538 205.049 209.206C204.578 209.696 203.689 209.725 203.239 209.266C202.798 208.816 202.71 208.272 202.988 207.725C203.267 207.177 203.753 206.94 204.366 207.051Z" fill="white"/>
<g style="mix-blend-mode:screen" opacity="0.5" filter="url(#filter0_f_110_7082)">
<ellipse cx="217" cy="191.5" rx="141.5" ry="167" transform="rotate(90 217 191.5)" fill="url(#paint0_radial_110_7082)"/>
</g>
<defs>
<filter id="filter0_f_110_7082" x="0" y="0" width="434" height="383" filterUnits="userSpaceOnUse" color-interpolation-filters="sRGB">
<feFlood flood-opacity="0" result="BackgroundImageFix"/>
<feBlend mode="normal" in="SourceGraphic" in2="BackgroundImageFix" result="shape"/>
<feGaussianBlur stdDeviation="25" result="effect1_foregroundBlur_110_7082"/>
</filter>
<radialGradient id="paint0_radial_110_7082" cx="0" cy="0" r="1" gradientUnits="userSpaceOnUse" gradientTransform="translate(217 191.5) rotate(90) scale(167 141.5)">
<stop stop-color="#6CC0AE"/>
<stop offset="0.513542" stop-color="#90CECD" stop-opacity="0"/>
</radialGradient>
</defs>
</svg>
