<svg width="166" height="55" viewBox="0 0 166 55" fill="none" xmlns="http://www.w3.org/2000/svg">
<path fill-rule="evenodd" clip-rule="evenodd" d="M156.28 18.3595L160.076 24.3939L163.801 18.3684C163.881 18.2268 163.978 18.1118 164.102 18.0233C164.217 17.9348 164.359 17.864 164.519 17.8286C164.679 17.7844 164.838 17.7844 164.998 17.8109C165.158 17.8463 165.308 17.9083 165.45 18.0056C165.743 18.2002 165.92 18.4391 165.973 18.7046C166.027 18.9789 165.956 19.262 165.761 19.554L161.291 26.6325V32.2157C161.291 32.5785 161.184 32.8616 160.963 33.0651C160.75 33.2598 160.457 33.3571 160.085 33.3571C159.703 33.3571 159.411 33.2598 159.207 33.0651C158.994 32.8616 158.888 32.5785 158.888 32.2157V26.7652L154.329 19.5452C154.134 19.2532 154.063 18.97 154.116 18.6957C154.17 18.4303 154.347 18.1914 154.64 17.9967C154.781 17.8994 154.932 17.8375 155.092 17.8021C155.251 17.7755 155.411 17.7755 155.571 17.8198C155.73 17.864 155.863 17.926 155.988 18.0144C156.103 18.1118 156.2 18.2268 156.28 18.3595ZM151.944 33.3483C151.819 33.2775 151.713 33.1713 151.615 33.0563L147.376 27.9597C147.217 27.8005 147.137 27.6147 147.137 27.4112C147.137 27.1546 147.296 26.9776 147.616 26.8891L147.633 26.8803C148.121 26.7829 148.574 26.6237 148.99 26.3936C149.407 26.1724 149.797 25.8804 150.152 25.5354C150.498 25.1903 150.764 24.8187 150.933 24.4205C151.101 24.0223 151.19 23.5888 151.19 23.1198C151.19 22.6951 151.11 22.2881 150.95 21.9165C150.791 21.536 150.542 21.1821 150.214 20.8458C149.886 20.5185 149.531 20.2619 149.15 20.1026C148.769 19.9433 148.352 19.8548 147.9 19.8548C147.403 19.8548 146.968 19.9345 146.587 20.0937C146.215 20.253 145.904 20.4831 145.638 20.8016C145.372 21.1201 145.168 21.4918 145.035 21.8988C144.902 22.3146 144.831 22.7836 144.831 23.2879V32.198C144.831 32.5608 144.725 32.8439 144.512 33.0474C144.308 33.2421 144.006 33.3394 143.634 33.3394C142.827 33.3394 142.428 32.9589 142.428 32.2068V23.2348C142.428 22.4297 142.552 21.6953 142.809 21.0317C143.066 20.368 143.448 19.7664 143.953 19.2443C144.467 18.7223 145.053 18.3241 145.709 18.0675C146.365 17.8109 147.101 17.6782 147.908 17.6782C148.715 17.6782 149.451 17.8021 150.126 18.0587C150.8 18.3153 151.403 18.7046 151.935 19.2178C152.467 19.731 152.866 20.3061 153.132 20.952C153.398 21.5979 153.531 22.2969 153.531 23.0579C153.531 23.5976 153.451 24.1108 153.292 24.6151C153.132 25.1106 152.892 25.5973 152.573 26.0574C152.254 26.5175 151.873 26.9245 151.438 27.2696C151.101 27.535 150.737 27.7651 150.338 27.9686L153.433 31.614C153.655 31.8883 153.762 32.1626 153.735 32.4457C153.708 32.72 153.558 32.9855 153.292 33.2244L153.265 33.2421C152.972 33.4544 152.68 33.5429 152.378 33.4987C152.21 33.481 152.077 33.4279 151.944 33.3483ZM130.26 26.4733H137.071V23.7215C137.071 23.1464 136.991 22.6243 136.841 22.1554C136.69 21.6864 136.45 21.2617 136.149 20.8812C135.847 20.5096 135.493 20.2353 135.076 20.0495C134.659 19.8637 134.171 19.7664 133.63 19.7664C133.045 19.7664 132.539 19.8548 132.123 20.0407C131.715 20.2176 131.369 20.4919 131.112 20.8458C130.837 21.2175 130.624 21.651 130.491 22.1377C130.349 22.6332 130.278 23.1906 130.278 23.81V26.4733H130.26ZM139.102 21.2706C139.359 21.9961 139.483 22.8013 139.483 23.6861V32.2157C139.483 32.5785 139.377 32.8616 139.155 33.0651C138.942 33.2598 138.65 33.3571 138.277 33.3571C137.896 33.3571 137.603 33.2598 137.399 33.0651C137.186 32.8616 137.071 32.5785 137.071 32.2157V28.5703H130.242V32.2157C130.242 32.5785 130.136 32.8616 129.914 33.0651C129.701 33.2598 129.409 33.3571 129.036 33.3571C128.247 33.3571 127.848 32.9766 127.848 32.2245V23.7215C127.848 22.8101 127.972 21.9872 128.22 21.2529C128.469 20.5096 128.841 19.8548 129.338 19.2974C129.843 18.7311 130.455 18.3064 131.174 18.0233C131.883 17.7401 132.699 17.6074 133.621 17.6074C134.544 17.6074 135.36 17.749 136.078 18.0321C136.805 18.3153 137.426 18.7488 137.949 19.324C138.463 19.8814 138.845 20.5362 139.102 21.2706ZM121.684 32.7023C120.789 33.0563 119.778 33.2421 118.651 33.2421H114.244C113.446 33.2421 113.038 32.8439 113.038 32.0653V19.0408C113.038 18.7046 113.144 18.4303 113.357 18.2002C113.472 18.0852 113.605 17.9967 113.765 17.9348C113.916 17.8817 114.084 17.8552 114.261 17.8552H118.403C119.556 17.8552 120.602 18.0321 121.516 18.3772C122.447 18.7311 123.254 19.2532 123.937 19.961C124.62 20.66 125.134 21.4741 125.471 22.4031C125.808 23.3233 125.977 24.3497 125.977 25.4911C125.977 26.6325 125.817 27.6678 125.489 28.6057C125.161 29.5436 124.673 30.3664 124.017 31.0831C123.369 31.7998 122.589 32.3396 121.684 32.7023ZM123.219 27.889C123.458 27.1988 123.573 26.4113 123.573 25.5177C123.573 24.6948 123.467 23.9515 123.245 23.2879C123.032 22.6332 122.704 22.0492 122.27 21.5448C121.844 21.0493 121.312 20.6777 120.691 20.4211C120.053 20.1645 119.308 20.0407 118.447 20.0407H115.45V31.0566H118.43C119.219 31.0566 119.928 30.9327 120.549 30.6938C121.17 30.4549 121.711 30.101 122.172 29.6232C122.642 29.1454 122.988 28.5703 123.219 27.889ZM103.522 33.3483C103.398 33.2775 103.291 33.1713 103.194 33.0563L98.9544 27.9597C98.7948 27.8005 98.715 27.6147 98.715 27.4112C98.715 27.1546 98.8746 26.9776 99.1939 26.8891L99.2116 26.8803C99.6994 26.7829 100.152 26.6237 100.569 26.3936C100.985 26.1724 101.376 25.8804 101.73 25.5354C102.076 25.1903 102.342 24.8187 102.511 24.4205C102.679 24.0223 102.768 23.5888 102.768 23.1198C102.768 22.6951 102.688 22.2881 102.528 21.9165C102.369 21.536 102.12 21.1821 101.792 20.8458C101.464 20.5185 101.109 20.2619 100.728 20.1026C100.347 19.9433 99.93 19.8548 99.4777 19.8548C98.981 19.8548 98.5465 19.9345 98.1651 20.0937C97.7927 20.253 97.4823 20.4831 97.2162 20.8016C96.9502 21.1201 96.7462 21.4918 96.6132 21.8988C96.4801 22.3146 96.4092 22.7836 96.4092 23.2879V32.198C96.4092 32.5608 96.3028 32.8439 96.0899 33.0474C95.8771 33.2421 95.5844 33.3394 95.2119 33.3394C94.4049 33.3394 94.0058 32.9589 94.0058 32.2068V23.2348C94.0058 22.4297 94.13 21.6953 94.3872 21.0317C94.6444 20.368 95.0257 19.7664 95.5312 19.2443C96.0367 18.7223 96.622 18.3241 97.2872 18.0675C97.9434 17.8109 98.6795 17.6782 99.4865 17.6782C100.294 17.6782 101.03 17.8021 101.704 18.0587C102.378 18.3153 102.981 18.7046 103.513 19.2178C104.045 19.731 104.444 20.3061 104.71 20.952C104.976 21.5979 105.109 22.2969 105.109 23.0579C105.109 23.5976 105.029 24.1108 104.87 24.6151C104.71 25.1106 104.471 25.5973 104.151 26.0574C103.832 26.5175 103.451 26.9245 103.016 27.2696C102.679 27.535 102.316 27.7651 101.917 27.9686L105.012 31.614C105.233 31.8883 105.34 32.1626 105.313 32.4457C105.287 32.72 105.136 32.9855 104.87 33.2244L104.843 33.2421C104.55 33.4544 104.258 33.5429 103.956 33.4987C103.788 33.481 103.646 33.4279 103.522 33.3483ZM81.8383 26.4733H88.6493V23.7215C88.6493 23.1464 88.5695 22.6243 88.4187 22.1554C88.2679 21.6864 88.0373 21.2617 87.727 20.8812C87.4254 20.5096 87.0707 20.2353 86.6539 20.0495C86.2371 19.8637 85.7493 19.7664 85.2083 19.7664C84.623 19.7664 84.1175 19.8548 83.7007 20.0407C83.2927 20.2176 82.9469 20.4919 82.6808 20.8458C82.4059 21.2175 82.2019 21.651 82.06 22.1377C81.9181 22.6332 81.8472 23.1906 81.8472 23.81V26.4733H81.8383ZM90.6802 21.2706C90.9373 21.9961 91.0615 22.8013 91.0615 23.6861V32.2157C91.0615 32.5785 90.9551 32.8616 90.7334 33.0651C90.5294 33.2598 90.2279 33.3571 89.8554 33.3571C89.474 33.3571 89.1814 33.2598 88.9774 33.0651C88.7646 32.8616 88.6493 32.5785 88.6493 32.2157V28.5703H81.8206V32.2157C81.8206 32.5785 81.7141 32.8616 81.4924 33.0651C81.2796 33.2598 80.9869 33.3571 80.6144 33.3571C79.8251 33.3571 79.4349 32.9766 79.4349 32.2245V23.7215C79.4349 22.8101 79.5591 21.9872 79.8074 21.2529C80.0557 20.5096 80.4282 19.8548 80.9248 19.2974C81.4303 18.7311 82.0423 18.3064 82.7606 18.0233C83.4701 17.7401 84.286 17.6074 85.2083 17.6074C86.1218 17.6074 86.9465 17.749 87.6649 18.0321C88.3921 18.3153 89.0129 18.7488 89.5361 19.324C90.0328 19.8814 90.423 20.5362 90.6802 21.2706ZM73.2625 32.7023C72.3668 33.0563 71.3558 33.2421 70.2295 33.2421H65.8218C65.0148 33.2421 64.6157 32.8439 64.6157 32.0653V19.0408C64.6157 18.7046 64.7221 18.4303 64.935 18.2002C65.0414 18.0852 65.1833 17.9967 65.3429 17.9348C65.4937 17.8817 65.6622 17.8552 65.8396 17.8552H69.9811C71.1341 17.8552 72.1805 18.0321 73.094 18.3772C74.0252 18.7311 74.8322 19.2532 75.5151 19.961C76.1979 20.66 76.7123 21.4741 77.0493 22.4031C77.3863 23.3233 77.5548 24.3497 77.5548 25.4911C77.5548 26.6325 77.3952 27.6678 77.0671 28.6057C76.7389 29.5436 76.2512 30.3664 75.5949 31.0831C74.9475 31.7998 74.1671 32.3396 73.2625 32.7023ZM74.7967 27.889C75.0362 27.1988 75.1515 26.4113 75.1515 25.5177C75.1515 24.6948 75.045 23.9515 74.8233 23.2879C74.6016 22.6332 74.2824 22.0492 73.8478 21.5448C73.4221 21.0493 72.8989 20.6777 72.2692 20.4211C71.6307 20.1645 70.8857 20.0407 70.0255 20.0407H67.0279V31.0566H70.0078C70.797 31.0566 71.5065 30.9327 72.1362 30.6938C72.757 30.4549 73.298 30.101 73.7591 29.6232C74.2203 29.1454 74.5661 28.5703 74.7967 27.889Z" fill="white"/>
<path fill-rule="evenodd" clip-rule="evenodd" d="M17.1428 11.4937C16.8235 11.1752 16.3002 11.1752 15.981 11.4937C15.6617 11.8123 15.6617 12.3343 15.981 12.6528L20.5482 17.2096L20.832 17.4928C21.9495 18.7492 23.4748 17.7671 23.3241 17.6609L18.207 12.5555L17.1428 11.4937ZM12.4159 17.8467L17.533 22.9521C17.6394 23.1025 18.6238 21.5806 17.3645 20.4657L16.9476 20.0499L12.5755 15.6877C12.2562 15.3692 11.733 15.3692 11.4137 15.6877C11.0945 16.0063 11.0945 16.5283 11.4137 16.8468L12.4159 17.8467ZM22.2687 22.2442C21.9849 22.5273 21.9849 22.9963 22.2687 23.2794C22.5525 23.5626 23.0225 23.5626 23.3063 23.2794C23.5901 22.9963 23.5901 22.5273 23.3063 22.2442C23.0137 21.9611 22.5525 21.9611 22.2687 22.2442ZM42.5509 36.8436C42.8702 37.1622 42.8702 37.6842 42.5509 38.0027C42.2317 38.3213 41.7084 38.3213 41.3891 38.0027L36.813 33.4459L36.5292 33.1628C35.2699 32.0479 36.2543 30.5261 36.3607 30.6765L41.4778 35.7819L42.5509 36.8436ZM36.1922 41.5597L31.0751 36.4543C30.9244 36.3481 32.4497 35.366 33.5672 36.6224L33.984 37.0383L38.3561 41.4004C38.6754 41.719 38.6754 42.241 38.3561 42.5595C38.0369 42.8781 37.5136 42.8781 37.1944 42.5595L36.1922 41.5597ZM31.7757 31.7294C31.4919 32.0125 31.0219 32.0125 30.7381 31.7294C30.4543 31.4463 30.4543 30.9773 30.7381 30.6942C31.0219 30.411 31.4919 30.411 31.7757 30.6942C32.0684 30.9862 32.0684 31.4463 31.7757 31.7294ZM23.5369 26.1197L23.0846 26.0843H22.9339C21.8696 26.0843 20.8054 26.4028 19.9097 27.0487C20.77 27.6239 21.7721 27.907 22.7742 27.907C23.8384 27.907 24.9027 27.5885 25.7984 26.9426C25.1155 26.4913 24.3351 26.217 23.5369 26.1197ZM27.0932 28.1636C26.428 29.0661 26.0999 30.1456 26.0999 31.2162C26.0999 32.3045 26.4369 33.384 27.1109 34.2954C27.776 33.3929 28.1042 32.3134 28.1042 31.2428C28.1042 30.1633 27.7672 29.075 27.0932 28.1636ZM17.3024 42.5064C16.9831 42.825 16.4599 42.825 16.1406 42.5064C15.8214 42.1879 15.8214 41.6659 16.1406 41.3473L20.7079 36.7905L20.9917 36.5074C22.1091 35.251 23.6345 36.2331 23.4837 36.3393L18.3666 41.4447L17.3024 42.5064ZM12.5755 36.1623L17.6926 31.0569C17.799 30.9065 18.7834 32.4284 17.5241 33.5433L17.1073 33.9591L12.7351 38.3213C12.4159 38.6398 11.8926 38.6398 11.5734 38.3213C11.2541 38.0027 11.2541 37.4807 11.5734 37.1622L12.5755 36.1623ZM22.4195 31.756C22.1357 31.4728 22.1357 31.0039 22.4195 30.7207C22.7033 30.4376 23.1733 30.4376 23.4571 30.7207C23.7409 31.0039 23.7409 31.4728 23.4571 31.756C23.1733 32.0479 22.7033 32.0479 22.4195 31.756ZM27.0754 25.6419C27.6608 24.7748 27.9445 23.7661 27.9445 22.7662C27.9445 21.731 27.643 20.7046 27.0222 19.8198C26.4369 20.6869 26.1531 21.6956 26.1531 22.7043C26.162 23.7218 26.4635 24.7571 27.0754 25.6419ZM34.2146 26.978C33.3277 26.3674 32.299 26.0578 31.2614 26.0578C30.2503 26.0578 29.2393 26.3497 28.3702 26.9337C29.2571 27.5442 30.2858 27.8451 31.3234 27.8451C32.3344 27.8539 33.3454 27.5619 34.2146 26.978ZM36.9638 11.4318C37.283 11.1133 37.8063 11.1133 38.1256 11.4318C38.4448 11.7503 38.4448 12.2724 38.1256 12.5909L33.5583 17.1477L33.2745 17.4308C32.1571 18.6873 30.6317 17.7051 30.7825 17.5989L35.8996 12.4936L36.9638 11.4318ZM41.6907 17.7759L36.5736 22.8813C36.4671 23.0317 35.4827 21.5098 36.7421 20.3949L37.1589 19.9791L41.531 15.617C41.8503 15.2984 42.3735 15.2984 42.6928 15.617C43.0121 15.9355 43.0121 16.4575 42.6928 16.7761L41.6907 17.7759ZM31.8467 22.1823C32.1305 22.4654 32.1305 22.9344 31.8467 23.2175C31.5629 23.5006 31.0929 23.5006 30.8091 23.2175C30.5253 22.9344 30.5253 22.4654 30.8091 22.1823C31.0929 21.8903 31.554 21.8903 31.8467 22.1823ZM20.6901 13.3695C20.3709 13.051 20.3709 12.529 20.6901 12.2104C21.0094 11.8919 21.5326 11.8919 21.8519 12.2104L27.0222 17.3689L30.4721 13.9181C30.5785 13.8119 31.5984 15.2542 30.6672 16.0417L28.1485 18.5545C29.1063 19.7756 29.5941 21.2621 29.5941 22.7486C29.5941 23.4033 29.4965 24.0581 29.3103 24.6951C29.9488 24.5093 30.6051 24.412 31.2614 24.412C32.7513 24.412 34.2412 24.8898 35.465 25.8542L40.7329 20.5985C41.0521 20.2799 41.5754 20.2799 41.8947 20.5985C42.2139 20.917 42.2139 21.439 41.8947 21.7576L36.6623 26.978L40.05 30.3579C40.1564 30.4641 38.7109 31.4817 37.9216 30.5526L35.4561 28.0928C34.2412 29.013 32.7867 29.4731 31.3234 29.4731C30.6849 29.4731 30.0552 29.3847 29.4433 29.2077C29.6473 29.8624 29.7448 30.5438 29.7448 31.2251C29.7448 32.7381 29.2482 34.2511 28.2461 35.4899L33.3543 40.5864C33.6736 40.9049 33.6736 41.427 33.3543 41.7455C33.035 42.064 32.5118 42.064 32.1925 41.7455L27.1109 36.6755L23.7852 39.9936C23.6788 40.0997 22.6589 38.6575 23.5901 37.87L25.9757 35.4899C24.9559 34.2423 24.4504 32.7204 24.4504 31.1985C24.4504 30.5438 24.5479 29.889 24.7342 29.2519C24.0956 29.4377 23.4394 29.5351 22.7831 29.5351C21.3375 29.5351 19.892 29.0838 18.677 28.1725L13.5244 33.3132C13.2052 33.6318 12.6819 33.6318 12.3626 33.3132C12.0434 32.9947 12.0434 32.4727 12.3626 32.1541L17.462 27.0664L13.9856 23.598C13.8792 23.4918 15.3247 22.4743 16.114 23.4033L18.5174 25.8012L18.7657 25.6596C19.6969 25.0756 20.8498 24.3324 22.6767 24.4474C22.7654 24.4474 22.8452 24.4474 22.9339 24.4474C23.5635 24.4474 24.2021 24.5359 24.814 24.7128C24.61 24.0581 24.5124 23.3768 24.5124 22.6955C24.5124 21.2444 24.9736 19.7844 25.8959 18.5722L20.6901 13.3695ZM12.3272 41.7101L12.4513 41.834C12.7706 42.0906 13.2495 42.0729 13.5422 41.772L18.9342 36.4012L18.9785 36.357L19.014 36.3127L19.0406 36.2862C19.3687 35.9588 19.6171 35.7199 19.8299 35.4722C20.9296 34.5785 22.2421 34.6227 23.7675 34.5962L23.2088 32.9947C23.2088 32.9947 22.18 32.8354 21.0537 33.092C21.3109 31.9683 21.1513 30.9419 21.1513 30.9419L19.5461 30.3845C19.5195 31.8975 19.5638 33.207 18.6681 34.3042C18.3843 34.5431 18.1183 34.8263 17.7369 35.2067L17.329 35.6668L12.3804 40.6041C12.0789 40.9138 12.0611 41.3827 12.3272 41.7101ZM41.5665 41.9136C41.7084 41.7809 41.8414 41.6482 41.9745 41.5066C42.1164 41.2058 42.0543 40.8341 41.806 40.5864L36.8574 35.6491L36.4494 35.189C36.0681 34.8086 35.802 34.5343 35.5182 34.2865C34.6225 33.1894 34.6668 31.8798 34.6402 30.3668L33.035 30.9242C33.035 30.9242 32.8754 31.9506 33.1415 33.0743C32.0152 32.8177 30.9864 32.9681 30.9864 32.9681L30.4277 34.5697C31.9442 34.5962 33.2568 34.552 34.3565 35.4456C34.5782 35.7022 34.8265 35.9411 35.1457 36.2597L35.1724 36.2862L35.2167 36.3216L35.261 36.3658L40.6442 41.7366C40.9014 41.9932 41.265 42.0552 41.5665 41.9136ZM42.1075 12.6086C41.8858 12.3785 41.6641 12.1573 41.4335 11.9361C41.1763 11.8919 40.9103 11.9715 40.7151 12.1662L35.332 17.5458L35.2876 17.5901L35.2433 17.6343L35.2167 17.6609C34.8886 17.9883 34.6402 18.2272 34.4274 18.4749C33.3277 19.3686 32.0152 19.3243 30.4987 19.3509L31.0574 20.9524C31.0574 20.9524 32.0861 21.1116 33.2124 20.8551C32.9552 21.9788 33.106 23.0051 33.106 23.0051L34.7112 23.5626C34.7378 22.0407 34.6935 20.74 35.5892 19.6429C35.873 19.404 36.139 19.1208 36.5204 18.7403L36.9283 18.2802L41.8769 13.343C42.072 13.1306 42.1518 12.8652 42.1075 12.6086ZM12.5844 12.0246C12.3893 12.2104 12.203 12.3962 12.0168 12.5909C11.937 12.8652 12.0079 13.1749 12.2296 13.3961L17.1782 18.3333L17.5862 18.7934C17.9675 19.1739 18.2336 19.4482 18.5174 19.6959C19.4131 20.7931 19.3687 22.1026 19.3953 23.6157L21.0005 23.0582C21.0005 23.0582 21.1602 22.0319 20.8941 20.9081C22.0204 21.1647 23.0492 21.0055 23.0492 21.0055L23.6079 19.404C22.0825 19.3774 20.7788 19.4217 19.6791 18.528C19.4574 18.2802 19.218 18.0325 18.8898 17.714L18.8632 17.6874L18.8278 17.652L18.7834 17.6078L13.4003 12.237C13.1697 12.0158 12.8593 11.945 12.5844 12.0246ZM7.99049 41.2235V38.4363C7.7067 37.9673 7.44065 37.4807 7.19233 36.9852C5.87093 34.375 5.07276 31.5082 4.85992 28.5352C4.83332 28.1459 5.12598 27.8185 5.50732 27.792C5.88866 27.7654 6.22567 28.0574 6.25227 28.4379C6.42077 30.8711 7.01496 33.2247 7.98162 35.4014V14.1659C5.63148 17.6343 4.21252 21.7753 4.06176 26.2436C4.03515 26.2436 4.00855 26.2436 3.98194 26.2436C3.56512 26.2436 3.22812 26.5798 3.22812 26.9957C3.22812 30.181 3.87552 33.3044 5.08163 36.1889C5.85319 37.9673 6.81985 39.6573 7.99049 41.2235ZM41.3182 46.0103H38.5246C38.0546 46.2934 37.5668 46.5589 37.0702 46.8066C34.454 48.125 31.5806 48.9213 28.6008 49.1337C28.2106 49.1602 27.8825 48.8682 27.8559 48.4878C27.8293 48.0985 28.1219 47.7711 28.5033 47.7445C30.9421 47.5764 33.3011 46.9836 35.4916 46.0191H14.2073C17.6837 48.3639 21.8342 49.7796 26.3127 49.93C26.3127 49.9566 26.3127 49.9831 26.3127 50.0097C26.3127 50.4255 26.6498 50.7617 27.0666 50.7617C30.2592 50.7617 33.3898 50.1158 36.2809 48.9125C38.0546 48.1427 39.7485 47.1782 41.3182 46.0103ZM46.116 12.759V15.5462C46.3998 16.0151 46.6659 16.5018 46.9142 16.9973C48.2356 19.6075 49.0338 22.4743 49.2466 25.4472C49.2732 25.8365 48.9806 26.1639 48.5992 26.1905C48.209 26.217 47.8809 25.925 47.8543 25.5446C47.6858 23.1113 47.0916 20.7577 46.1249 18.5722V39.8078C48.4751 36.3393 49.894 32.1984 50.0359 27.7301C50.0625 27.7301 50.0891 27.7389 50.1157 27.7389C50.5325 27.7389 50.8695 27.4027 50.8695 26.9868C50.8695 23.8015 50.231 20.6781 49.016 17.7936C48.2533 16.0151 47.2867 14.3251 46.116 12.759ZM12.7883 7.97217H15.5819C16.0519 7.68903 16.5397 7.42358 17.0363 7.17584C19.6525 5.85746 22.5259 5.06113 25.5057 4.84878C25.8871 4.82223 26.2241 5.11422 26.2507 5.49469C26.2773 5.88401 25.9846 6.21139 25.6033 6.23793C23.1644 6.40605 20.8054 6.99887 18.6149 7.96332H39.9081C36.4317 5.61856 32.2724 4.20286 27.8027 4.06129C27.8027 4.03475 27.8027 4.0082 27.8027 3.98166C27.8027 3.5658 27.4657 3.22957 27.0577 3.22957C23.8651 3.22957 20.7345 3.87548 17.8434 5.07883C16.0519 5.83977 14.3581 6.80421 12.7883 7.97217ZM27.0577 0C34.525 0 41.2916 3.01721 46.187 7.91023C51.0824 12.7944 54.1154 19.5455 54.1154 26.9957C54.1154 34.4458 51.0913 41.1969 46.187 46.0811C41.2916 50.9653 34.525 53.9825 27.0577 53.9825C19.5905 53.9825 12.8238 50.9653 7.92841 46.0811C3.02415 41.1969 0 34.4458 0 26.9957C0 19.5455 3.02415 12.7944 7.91954 7.91023C12.8238 3.01721 19.5816 0 27.0577 0Z" fill="#6EC1AF"/>
<path d="M67.0456 40.7363C67.5511 40.7363 68.0478 40.8514 68.4912 41.0726V41.8777C68.1365 41.63 67.6664 41.5061 67.1875 41.5061C66.2209 41.5061 65.2099 42.0724 65.201 43.4173C65.201 44.6561 66.2297 45.24 67.1964 45.24C67.7196 45.24 68.1897 45.0985 68.5178 44.8507V45.6647C68.0921 45.8771 67.5866 46.001 67.0456 46.001C65.7331 46.001 64.3496 45.1515 64.3496 43.4262C64.3585 41.6034 65.7154 40.7363 67.0456 40.7363Z" fill="white"/>
<path d="M73.0498 40.834V41.5861H70.3892V42.9664H72.8369V43.7185H70.3892V45.143H73.0941V45.8951H69.5645V40.8428H73.0498V40.834Z" fill="white"/>
<path d="M77.8211 40.834V41.5949H76.145V45.8951H75.3202V41.5949H73.644V40.834H77.8211Z" fill="white"/>
<path d="M78.6548 45.8863V40.834H79.4796V42.5682H80.464C81.6701 42.5771 82.6279 42.9398 82.6279 44.2317C82.6279 45.5146 81.6612 45.8951 80.464 45.8951H78.6548V45.8863ZM79.4796 45.1342H80.5083C81.2089 45.1342 81.7854 44.9572 81.7854 44.2228C81.7854 43.4884 81.2 43.3115 80.5083 43.3115H79.4796V45.1342Z" fill="white"/>
<path d="M87.7625 40.7363C88.268 40.7363 88.7646 40.8514 89.208 41.0726V41.8777C88.8533 41.63 88.3833 41.5061 87.9044 41.5061C86.9377 41.5061 85.9267 42.0724 85.9178 43.4173C85.9178 44.6561 86.9466 45.24 87.9132 45.24C88.4365 45.24 88.9065 45.0985 89.2346 44.8507V45.6647C88.8089 45.8771 88.3034 46.001 87.7625 46.001C86.4499 46.001 85.0576 45.1515 85.0664 43.4262C85.0753 41.6034 86.4322 40.7363 87.7625 40.7363Z" fill="white"/>
<path d="M93.9349 40.834V41.5949H92.2587V45.8951H91.434V41.5949H89.7578V40.834H93.9349Z" fill="white"/>
<path d="M95.3892 45.9826C95.1586 45.9826 94.9015 45.9383 94.662 45.8675V45.142C94.8394 45.2039 95.0434 45.2393 95.2473 45.2393C95.6641 45.2393 95.9391 45.0801 96.143 44.673L96.2406 44.4872L94.1831 40.8418H95.1054L96.6663 43.7351L97.9611 40.8418H98.8568L97.021 44.7527C96.5687 45.6994 95.9923 45.9826 95.3892 45.9826Z" fill="white"/>
<path d="M99.1143 47.0356V45.1333H99.7262C100.374 43.9653 100.533 42.3196 100.533 40.8242H103.797V45.1333H104.444V47.0356H103.69V45.8854H99.8681V47.0356H99.1143ZM100.622 45.1333H102.972V41.5852H101.34C101.269 42.8504 101.101 44.2219 100.622 45.1333Z" fill="white"/>
<path d="M108.896 45.8863V42.7363C108.896 42.5594 108.896 42.3647 108.905 42.1877L106.173 45.8863H105.402V40.834H106.227V43.9751C106.227 44.1609 106.227 44.3555 106.218 44.5325L108.949 40.834H109.721V45.8863H108.896Z" fill="white"/>
<path d="M114.563 45.8858V42.7359C114.563 42.5589 114.563 42.3643 114.572 42.1873L111.84 45.8858H111.069V40.8336H111.894V43.9746C111.894 44.1605 111.894 44.3551 111.885 44.5321L114.616 40.8336H115.388V45.8858H114.563ZM114.288 40.0992V39.4355C113.916 39.6744 113.596 39.7452 113.224 39.7452C112.851 39.7452 112.523 39.6744 112.151 39.4355V40.0992C112.47 40.3204 112.816 40.4088 113.224 40.4088C113.623 40.4088 113.969 40.3204 114.288 40.0992Z" fill="white"/>
<path d="M119.716 40.7363C121.037 40.7363 122.394 41.5769 122.394 43.4173C122.394 45.2135 121.028 45.9833 119.698 45.9833C119.192 45.9833 118.687 45.8594 118.261 45.647V44.8153C118.625 45.0896 119.095 45.2135 119.574 45.2135C120.505 45.2135 121.436 44.833 121.56 43.727H119.077V42.9926H121.543C121.401 41.9131 120.505 41.5061 119.592 41.5061C119.139 41.5061 118.625 41.6211 118.27 41.8777V41.0726C118.696 40.8514 119.201 40.7363 119.716 40.7363Z" fill="white"/>
<path d="M125.808 40.7363C126.314 40.7363 126.81 40.8514 127.254 41.0726V41.8777C126.899 41.63 126.429 41.5061 125.95 41.5061C124.984 41.5061 123.973 42.0724 123.964 43.4173C123.964 44.6561 124.992 45.24 125.959 45.24C126.482 45.24 126.952 45.0985 127.28 44.8507V45.6647C126.855 45.8771 126.349 46.001 125.808 46.001C124.496 46.001 123.112 45.1515 123.112 43.4262C123.121 41.6034 124.469 40.7363 125.808 40.7363Z" fill="white"/>
<path d="M131.981 40.834V41.5949H130.305V45.8951H129.48V41.5949H127.804V40.834H131.981Z" fill="white"/>
<path d="M136.3 40.834V41.5861H133.639V42.9664H136.087V43.7185H133.639V45.143H136.344V45.8951H132.814V40.8428H136.3V40.834Z" fill="white"/>
<path d="M141.071 40.834V41.5949H139.395V45.8951H138.57V41.5949H136.894V40.834H141.071Z" fill="white"/>
<path d="M145.398 45.8863V42.7363C145.398 42.5594 145.398 42.3647 145.407 42.1877L142.676 45.8863H141.904V40.834H142.729V43.9751C142.729 44.1609 142.729 44.3555 142.72 44.5325L145.452 40.834H146.223V45.8863H145.398Z" fill="white"/>
<path d="M147.571 45.8863V40.834H148.396V42.9398H149.398L150.808 40.834H151.739L150.063 43.2938L151.873 45.8863H150.941L149.416 43.7008H148.405V45.8863H147.571Z" fill="white"/>
<path d="M156.085 45.8863V42.7363C156.085 42.5594 156.085 42.3647 156.094 42.1877L153.362 45.8863H152.591V40.834H153.416V43.9751C153.416 44.1609 153.416 44.3555 153.407 44.5325L156.138 40.834H156.91V45.8863H156.085Z" fill="white"/>
<path d="M68.8815 48.796V53.8482H68.0567V49.548H66.3806C66.1855 51.7866 65.9815 53.9102 64.6158 53.919C64.465 53.919 64.2965 53.8925 64.1191 53.8305V53.0696C64.2167 53.105 64.3142 53.1227 64.465 53.1227C65.3519 53.0962 65.4494 50.8133 65.609 48.7871H68.8815V48.796Z" fill="white"/>
<path d="M73.7237 53.8492V50.6992C73.7237 50.5223 73.7237 50.3276 73.7325 50.1506L71.001 53.8492H70.2295V48.7969H71.0543V51.938C71.0543 52.1238 71.0543 52.3184 71.0454 52.4954L73.7769 48.7969H74.5484V53.8492H73.7237Z" fill="white"/>
<path d="M80.0469 54.9994L80.0558 53.8492H75.8965V48.7969H76.7213V53.0882H79.3463V48.7969H80.1711V53.0882H80.8096V54.9994H80.0469Z" fill="white"/>
<path d="M81.1821 53.8492L83.3283 48.7969H84.2329L86.3702 53.8492H85.5011L85.0488 52.7608H82.5035L82.0512 53.8492H81.1821ZM82.7873 52.0353H84.7561L83.8693 49.8763C83.8427 49.7967 83.8161 49.7171 83.7717 49.5932C83.7362 49.7171 83.7096 49.7967 83.6742 49.8763L82.7873 52.0353Z" fill="white"/>
<path d="M92.4629 53.8492V50.6992C92.4629 50.5223 92.4629 50.3276 92.4718 50.1506L89.7403 53.8492H88.9688V48.7969H89.7935V51.938C89.7935 52.1238 89.7935 52.3184 89.7846 52.4954L92.5161 48.7969H93.2877V53.8492H92.4629Z" fill="white"/>
<path d="M100.117 48.7969V49.5578H98.4404V53.858H97.6156V49.5578H95.9395V48.7969H100.117Z" fill="white"/>
<path d="M104.435 48.7969V49.549H101.774V50.9293H104.222V51.6814H101.774V53.1059H104.479V53.858H100.95V48.8057H104.435V48.7969Z" fill="white"/>
<path d="M109.747 48.796V53.8482H108.922V49.548H107.246C107.051 51.7866 106.847 53.9102 105.482 53.919C105.331 53.919 105.162 53.8925 104.985 53.8305V53.0696C105.082 53.105 105.18 53.1227 105.331 53.1227C106.218 53.0962 106.315 50.8133 106.475 48.7871H109.747V48.796Z" fill="white"/>
<path d="M110.528 53.8492L112.674 48.7969H113.579L115.716 53.8492H114.847L114.394 52.7608H111.849L111.397 53.8492H110.528ZM112.133 52.0353H114.102L113.215 49.8763C113.188 49.7967 113.162 49.7171 113.117 49.5932C113.082 49.7171 113.055 49.7967 113.02 49.8763L112.133 52.0353Z" fill="white"/>
</svg>
